<?xml version="1.0" encoding="UTF-8"?>
<svg width="134px" height="114px" viewBox="0 0 134 114" version="1.1" xmlns="http://www.w3.org/2000/svg" xmlns:xlink="http://www.w3.org/1999/xlink">
    <!-- Generator: Sketch 58 (84663) - https://sketch.com -->
    <title>logoAsset 3</title>
    <desc>Created with Sketch.</desc>
    <g id="-" stroke="none" stroke-width="1" fill="none" fill-rule="evenodd">
        <g id="04_PRUEBA_EH_Contribuir_PopUp_B" transform="translate(-653.000000, -269.000000)">
            <g id="logoAsset-3" transform="translate(654.000000, 270.000000)">
                <rect id="Rectangle" fill="#ECECE2" fill-rule="nonzero" x="88.49152" y="53.15072" width="14.4" height="8.09472"></rect>
                <path d="M91.27424,19.40736 C90.927792,19.4248496 90.6053935,19.5897759 90.38848,19.86048 C89.9253115,20.3258127 89.7204879,20.9890965 89.84064,21.63456 C89.90208,22.03392 89.93024,22.92992 89.38496,23.42656 C88.69888,24.04608 88.46336,23.82336 87.74912,24.46592 C87.11424,25.03936 87.12448,25.36192 87.17824,26.07872 C87.232,26.79552 87.55712,26.95936 86.98112,27.7376 C86.40512,28.51584 86.3232,29.2736 87.04768,29.96224 C87.77216,30.65088 88.91904,30.88128 89.79712,30.89152 C90.82112,30.90688 91.71456,30.98368 92.61312,29.68576 C93.51168,28.38784 93.63712,27.33312 92.94848,26.16064 C92.45696,25.32864 92.29312,25.0368 92.42112,24.52992 C92.62336,23.74144 92.8384,23.33952 92.58496,22.6048 C92.38016,22.00064 92.16512,21.75488 92.35456,21.46816 C92.57216,21.14304 92.9408,21.06624 92.59264,20.23424" id="Path" fill="#062F4F" fill-rule="nonzero"></path>
                <rect id="Rectangle" stroke="#062F4F" stroke-width="0.5" fill="#A0F48C" fill-rule="nonzero" stroke-linecap="round" stroke-linejoin="round" transform="translate(92.126101, 19.321158) rotate(34.060000) translate(-92.126101, -19.321158) " x="90.9254609" y="18.7758777" width="2.40128" height="1.09056" rx="0.54528"></rect>
                <path d="M100.57216,19.90656 C100.918108,19.9237388 101.240313,20.0876346 101.45792,20.35712 C101.921911,20.8230128 102.126801,21.4874683 102.00576,22.13376 C101.94688,22.53312 101.91872,23.42912 102.46144,23.92576 C103.14752,24.54528 103.38304,24.32 104.09728,24.96512 C104.73472,25.536 104.72192,25.85856 104.66816,26.57536 C104.6144,27.29216 104.28928,27.456 104.86528,28.23424 C105.44128,29.01248 105.5232,29.77024 104.80128,30.46144 C104.07936,31.15264 102.92736,31.37792 102.05184,31.39072 C101.02784,31.40608 100.1344,31.48288 99.23584,30.1824 C98.33728,28.88192 98.21184,27.82976 98.90048,26.65728 C99.39456,25.82528 99.5584,25.53344 99.42784,25.02912 C99.2256,24.24064 99.01056,23.83872 99.264,23.10144 C99.47136,22.49984 99.68384,22.25152 99.4944,21.96736 C99.2768,21.63968 98.91072,21.56288 99.25888,20.73088" id="Path" fill="#062F4F" fill-rule="nonzero"></path>
                <rect id="Rectangle" stroke="#062F4F" stroke-width="0.5" fill="#A0F48C" fill-rule="nonzero" stroke-linecap="round" stroke-linejoin="round" transform="translate(99.719987, 19.815595) rotate(145.940000) translate(-99.719987, -19.815595) " x="98.5193474" y="19.270315" width="2.40128" height="1.09056" rx="0.54528"></rect>
                <path d="M93.05088,16.47104 C93.15584,17.42592 92.49024,18.15552 91.61728,18.37568 C90.3552,18.69312 89.28512,16.86528 89.49504,15.92832 C89.75104,14.83776 90.37312,14.66368 91.24608,14.91712 C92.11904,15.17056 92.94848,15.51616 93.05088,16.47104 Z" id="Path" stroke="#062F4F" stroke-width="0.5" fill="#B8B7B7" fill-rule="nonzero"></path>
                <path d="M90.13248,15.71072 C90.6779859,16.1381368 91.0748281,16.7266815 91.26656,17.39264" id="Path" stroke="#062F4F" stroke-width="0.5" fill="#B8B7B7" fill-rule="nonzero" stroke-linecap="round" stroke-linejoin="round"></path>
                <path d="M100.25984,16.47104 C100.15744,17.42592 100.82304,18.15552 101.696,18.37568 C102.95808,18.69312 104.02816,16.86528 103.81824,15.92832 C103.56224,14.83776 102.94016,14.66368 102.0672,14.91712 C101.19424,15.17056 100.3648,15.51616 100.25984,16.47104 Z" id="Path" stroke="#062F4F" stroke-width="0.5" fill="#B8B7B7" fill-rule="nonzero"></path>
                <path d="M102.99904,15.71072 C102.99904,15.71072 102.48704,15.97952 102.23104,17.19808" id="Path" stroke="#062F4F" stroke-width="0.5" fill="#B8B7B7" fill-rule="nonzero" stroke-linecap="round" stroke-linejoin="round"></path>
                <rect id="Rectangle" stroke="#062F4F" stroke-width="0.5" fill="#B8B7B7" fill-rule="nonzero" x="93.18656" y="19.52768" width="5.16096" height="9.024"></rect>
                <polygon id="Path" fill="#062F4F" fill-rule="nonzero" points="98.34752 19.52768 98.34752 22.42304 93.18656 22.1952 93.18656 19.52768"></polygon>
                <path d="M91.52256,16.384 C91.5456,16.51968 91.56864,16.66048 91.58656,16.80128 C91.65056,17.31328 91.73504,18.84928 92.46464,19.88864 C93.2651399,20.9962186 94.1695056,22.024881 95.16544,22.96064 C95.67744,23.42144 96.46592,23.76704 97.03424,23.67744 C97.7260129,23.5573206 98.371047,23.2480941 98.89792,22.784 C99.52768,22.29504 100.07552,21.93408 100.71808,21.42976 C101.7728,20.60288 102.37952,19.05664 102.51008,17.84576 C102.64064,16.63488 102.33344,15.2576 102.0416,13.94944 C101.74976,12.64128 101.76,8.9856 99.27424,8.2688 C96.87808,7.5776 94.15424,7.39328 92.22912,8.7808 C91.0592,9.6384 90.60608,11.32288 91.52256,16.384 Z" id="Path" stroke="#062F4F" stroke-width="0.5" fill="#B8B7B7" fill-rule="nonzero"></path>
                <path d="M95.5648,19.68384 C95.5648,19.68384 97.42336,20.92288 99.03616,19.52768" id="Path" stroke="#062F4F" stroke-width="0.5" stroke-linecap="round" stroke-linejoin="round"></path>
                <path d="M97.72032,14.62528 C97.72032,14.62528 97.62816,15.81056 98.06336,16.38912 C98.53952,17.024 98.72128,17.1008 98.7776,17.39776 C98.85696,17.81504 98.53952,18.42176 97.55904,17.87648" id="Path" stroke="#062F4F" stroke-width="0.5" stroke-linecap="round" stroke-linejoin="round"></path>
                <circle id="Oval" fill="#062F4F" fill-rule="nonzero" cx="99.03616" cy="15.12192" r="1"></circle>
                <circle id="Oval" fill="#062F4F" fill-rule="nonzero" cx="95.21408" cy="15.2192" r="1"></circle>
                <path d="M98.20416,13.70624 C98.6885833,13.3311838 99.358439,13.3074812 99.86816,13.64736" id="Path" stroke="#062F4F" stroke-width="0.5" stroke-linecap="round" stroke-linejoin="round"></path>
                <path d="M94.32064,13.85728 C94.7623504,13.4320257 95.4270356,13.3381028 95.96928,13.62432" id="Path" stroke="#062F4F" stroke-width="0.5" stroke-linecap="round" stroke-linejoin="round"></path>
                <path d="M91.66336,17.5616 C91.900101,17.3221641 92.1056724,17.0538031 92.2752,16.76288 C92.89984,15.83616 92.5952,15.71072 92.85632,14.62528 C93.06112,13.78048 93.52448,13.31712 93.62432,12.57728 C93.73184,11.79392 93.54752,10.06592 92.66944,9.50528 C91.79136,8.94464 91.4048,8.84736 90.89024,9.2672 C90.37568,9.68704 89.90464,10.9312 89.84576,12.38272 C89.792,13.7472 89.97888,14.45376 90.4704,15.296 C90.7904,15.85152 91.06176,16.08448 91.264,16.81664 C91.45088,17.47968 91.53024,17.50016 91.66336,17.5616 Z" id="Path" fill="#062F4F" fill-rule="nonzero"></path>
                <path d="M102.6176,10.44736 C102.6176,10.44736 103.2192,11.05664 103.2192,12.41344 C103.2192,13.77024 102.80192,14.6816 102.6816,14.81472 C102.552189,15.0438472 102.449133,15.286888 102.3744,15.5392 L102.0032,13.80864 L101.78048,12.30336 L101.44256,10.63936 L102.46656,10.28352 L102.6176,10.44736 Z" id="Path" fill="#062F4F" fill-rule="nonzero"></path>
                <ellipse id="Oval" fill="#062F4F" fill-rule="nonzero" transform="translate(93.527231, 8.897497) rotate(-12.830000) translate(-93.527231, -8.897497) " cx="93.5272312" cy="8.89749729" rx="3.59424" ry="2.99776"></ellipse>
                <ellipse id="Oval" fill="#062F4F" fill-rule="nonzero" transform="translate(98.359791, 8.065725) rotate(-12.830000) translate(-98.359791, -8.065725) " cx="98.3597905" cy="8.06572454" rx="3.328" ry="3.4816"></ellipse>
                <circle id="Oval" fill="#062F4F" fill-rule="nonzero" cx="101.89568" cy="7.65952" r="3.3408"></circle>
                <path d="M102.94784,52.20864 C103.434358,52.6760648 103.774932,53.274513 103.92832,53.93152 C104.16384,54.93504 104.98816,58.65472 105.10336,59.56352 C105.21856,60.47232 105.83296,63.232 105.728,66.9312 C105.618416,69.556594 105.317242,72.1704796 104.82688,74.752 C104.82688,74.752 104.71424,86.35648 104.59136,87.808 C104.49664,88.97792 104.35072,93.10464 104.31232,95.24736 C104.31232,95.60576 104.31232,95.90784 104.31232,96.13312 C104.31232,96.24064 104.31232,96.33024 104.31232,96.38912 C104.35013,96.9322725 104.45768,97.4683014 104.63232,97.984 C104.840904,98.6948626 105.107175,99.3875099 105.42848,100.05504 C105.46944,100.13952 105.5104,100.224 105.55392,100.31104 C105.59744,100.39808 105.6768,100.54656 105.7408,100.66176 C105.8048,100.77696 105.90464,100.95104 105.9968,101.0944 C106.08896,101.23776 106.16832,101.3632 106.2528,101.49632 C106.58588,101.998652 106.964663,102.469132 107.38432,102.90176 C108.150324,103.687572 108.972553,104.416541 109.84448,105.08288 C110.03904,105.2288 110.32064,105.41568 110.32064,105.68448 C110.32064,106.17344 109.70368,106.31424 109.3248,106.368 C108.748322,106.449426 108.165909,106.481116 107.584,106.46272 C106.800014,106.454511 106.018458,106.373956 105.24928,106.22208 C104.342304,106.001526 103.449038,105.72799 102.57408,105.40288 C102.09792,105.24928 101.6192,105.09312 101.15328,104.90624 C101.1072,104.88576 101.05856,104.8704 101.01248,104.84736 C100.974865,104.833319 100.938108,104.817077 100.9024,104.79872 L100.8512,104.77824 L100.79744,104.7552 C100.775932,104.74612 100.755356,104.734974 100.736,104.72192 L100.72064,104.72192 L100.6464,104.68608 C100.58752,104.65792 100.5312,104.62464 100.47744,104.59392 C100.379094,104.543312 100.286412,104.482382 100.20096,104.41216 C100.189894,104.405679 100.180303,104.39696 100.1728,104.38656 C100.089584,104.313829 100.048267,104.204291 100.06272,104.09472 C100.197549,103.147485 100.282997,102.193876 100.31872,101.23776 C100.31872,101.04576 100.31872,100.86144 100.31872,100.67968 C100.32106,100.337015 100.297096,99.9946768 100.24704,99.65568 C100.11392,98.88768 99.84,97.5232 99.53536,96.13056 C99.46368,95.79776 99.38688,95.46752 99.31264,95.13984 C99.08224,94.13632 98.84928,93.19168 98.65472,92.5312 C98.14272,90.75968 96.75008,86.79424 96.90624,82.69568 C97.055935,79.9026767 97.4404388,77.1272277 98.05568,74.39872 C98.05568,74.39872 95.62624,64.09472 95.49568,61.32736 L96.64,60.7104 C97.3581773,60.324011 98.026936,59.8520978 98.63168,59.30496 C99.4189342,58.5879966 100.129331,57.7909453 100.75136,56.92672" id="Path" stroke="#062F4F" stroke-width="0.5" fill="#ECECE2" fill-rule="nonzero" stroke-linecap="round" stroke-linejoin="round"></path>
                <path d="M96.03328,60.5312 C95.9488,62.27456 93.85472,74.15808 93.30688,75.97824 C92.75904,77.7984 92.6848,78.0032 93.03296,81.94304 C93.2628391,84.6725892 93.120739,87.4207177 92.61056,90.112 C92.49792,90.80064 92.27008,92.64384 92.08064,94.52032 C92.04992,94.8224 92.01664,95.12704 91.98848,95.42656 C91.83744,96.96256 91.73248,98.4064 91.73248,99.11296 C91.7518349,99.6149216 91.8091721,100.114697 91.904,100.608 C91.98848,101.10208 92.09856,101.58848 92.20096,102.00576 L92.20096,102.00576 C92.1997665,102.021097 92.1997665,102.036503 92.20096,102.05184 C92.24448,102.2336 92.29056,102.4 92.33152,102.55104 L92.35456,102.6304 C92.46208,103.0272 92.54144,103.27552 92.54144,103.27552 L92.89728,104.512 C92.9107026,104.569927 92.9175724,104.629179 92.91776,104.68864 C92.9172205,104.758676 92.9077576,104.828357 92.8896,104.896 C92.8422999,105.130621 92.7356532,105.349203 92.57984,105.53088 C92.44672,105.6896 92.28288,105.8304 92.09088,106.08128 C91.987016,106.211181 91.8713199,106.331163 91.74528,106.43968 L91.392,106.752 C91.0667954,107.028722 90.690075,107.238398 90.28352,107.36896 L89.8176,107.52 C89.3496801,107.668361 88.8538665,107.706904 88.36864,107.63264 L88.16128,107.60192 C87.9275428,107.562576 87.704438,107.475425 87.50592,107.34592 L87.15776,107.13088 C86.7295966,106.868036 86.3335364,106.556171 85.9776,106.2016 L85.94176,106.1632 C85.7305136,105.951213 85.5809541,105.685723 85.50912,105.3952 C85.4655837,105.197893 85.4655837,104.993467 85.50912,104.79616 L85.61152,104.3328 C85.6320472,104.245444 85.659439,104.159845 85.69344,104.0768 C85.7088,104.04352 85.72928,104 85.7472,103.95392 C85.76512,103.90784 85.7856,103.86688 85.80608,103.81568 C85.8085821,103.80646 85.8085821,103.79674 85.80608,103.78752 L85.888,103.6032 L85.93152,103.49824 C85.952,103.4496 85.97504,103.3984 85.99552,103.34464 L86.0416,103.23712 C86.08768,103.1296 86.13376,103.01696 86.1824,102.8992 L86.28992,102.6432 C86.32576,102.56384 86.35648,102.48448 86.38976,102.40512 L86.50752,102.11328 L86.592,101.91104 C86.70208,101.632 86.80704,101.36576 86.89152,101.14304 C86.8901524,101.138883 86.8901524,101.134397 86.89152,101.13024 C86.899358,101.102425 86.9087596,101.075075 86.91968,101.04832 L87.01184,100.79232 L87.04512,100.67712 C87.08352,100.53632 87.11168,100.42112 87.13472,100.33408 C87.21408,99.98592 87.2064,99.78624 87.2448,98.66496 C87.2306813,97.7159819 87.1588688,96.7687404 87.02976,95.82848 C87.01696,95.70304 87.0016,95.57248 86.98624,95.45216 C86.96832,95.2832 86.94528,95.10912 86.9248,94.94016 C86.6816,92.96896 86.35648,90.70592 86.12864,89.16224 C85.71392,86.33088 85.81888,77.70624 85.81888,77.70624 C85.81888,77.70624 84.77952,70.8736 84.6464,64.53504 C84.51328,58.19648 87.2448,51.77856 87.2448,51.77856" id="Path" stroke="#062F4F" stroke-width="0.5" fill="#ECECE2" fill-rule="nonzero" stroke-linecap="round" stroke-linejoin="round"></path>
                <path d="M92.18816,101.99808 L89.45152,101.77536 L88.1536,101.66784 L87.43168,101.61152 L86.89408,101.12256 L86.89408,101.12256 C86.89408,101.0944 86.91456,101.06624 86.9248,101.0432 L87.01696,100.7872 L87.05024,100.672 C87.08864,100.5312 87.1168,100.416 87.13984,100.32896 C87.2192,99.9808 87.21152,99.78112 87.24992,98.65984 C87.2353422,97.7177747 87.1643886,96.7774265 87.03744,95.84384 C88.610825,96.4722286 90.3614717,96.4941231 91.95008,95.90528 C91.81952,97.27232 91.72992,98.50368 91.74016,99.14112 C91.758384,99.6334618 91.813148,100.12377 91.904,100.608 C91.97568,101.0944 92.08576,101.5808 92.18816,101.99808 Z" id="Path" stroke="#062F4F" stroke-width="0.5" fill="#B8B7B7" fill-rule="nonzero" stroke-linecap="round" stroke-linejoin="round"></path>
                <path d="M105.984,101.12 L104.448,101.53728 L103.55712,101.77792 L100.32384,101.26592 C100.32384,101.07392 100.32384,100.8896 100.32384,100.70784 C100.32618,100.365175 100.302216,100.022837 100.25216,99.68384 C100.11904,98.91584 99.84512,97.55136 99.54048,96.15872 L99.54048,96.15872 C100.23168,96.41472 102.40768,97.0624 104.2944,96.15872 L104.2944,96.15872 C104.2944,96.26624 104.2944,96.35584 104.2944,96.41472 C104.33221,96.9578725 104.43976,97.4939014 104.6144,98.0096 C104.822984,98.7204626 105.089255,99.4131099 105.41056,100.08064 C105.45152,100.16512 105.49248,100.2496 105.536,100.33664 C105.57952,100.42368 105.65888,100.57216 105.72288,100.68736 C105.78688,100.80256 105.90208,100.97408 105.984,101.12 Z" id="Path" stroke="#062F4F" stroke-width="0.5" fill="#B8B7B7" fill-rule="nonzero" stroke-linecap="round" stroke-linejoin="round"></path>
                <path d="M110.31808,105.70752 C110.31808,106.19648 109.70112,106.33728 109.32224,106.39104 C108.745762,106.472466 108.163349,106.504156 107.58144,106.48576 C106.797454,106.477551 106.015898,106.396996 105.24672,106.24512 C104.339744,106.024566 103.446478,105.75103 102.57152,105.42592 C102.09536,105.27232 101.61664,105.11616 101.15072,104.92928 C101.10464,104.9088 101.056,104.89344 101.00992,104.8704 C100.972305,104.856359 100.935548,104.840117 100.89984,104.82176 L100.84864,104.80128 L100.73344,104.74496 L100.71808,104.74496 L100.64384,104.70912 C100.58496,104.68096 100.52864,104.64768 100.47488,104.61696 C100.376534,104.566352 100.283852,104.505422 100.1984,104.4352 C100.187334,104.428719 100.177743,104.42 100.17024,104.4096 C100.087024,104.336869 100.045707,104.227331 100.06016,104.11776 C100.194989,103.170525 100.280437,102.216916 100.31616,101.2608 C100.31616,101.0688 100.31616,100.88448 100.31616,100.70272 L100.31616,100.70272 C100.31616,100.70272 100.76416,100.8384 101.41184,100.97408 L101.41184,100.97408 C102.36909,101.198289 103.354683,101.276826 104.33536,101.20704 C104.83196,101.173152 105.307911,100.995227 105.70496,100.69504 L105.70496,100.69504 C105.78432,100.84096 105.8688,100.98432 105.96096,101.12768 C106.05312,101.27104 106.13248,101.39648 106.21696,101.5296 C106.55004,102.031932 106.928823,102.502412 107.34848,102.93504 C108.114484,103.720852 108.936713,104.449821 109.80864,105.11616 C110.03648,105.25184 110.31808,105.43872 110.31808,105.70752 Z" id="Path" stroke="#062F4F" stroke-width="0.5" fill="#062F4F" fill-rule="nonzero" stroke-linecap="round" stroke-linejoin="round"></path>
                <path d="M99.55072,96.14336 C100.24192,96.39936 102.41792,97.04704 104.30464,96.14336" id="Path" stroke="#062F4F" stroke-width="0.5" stroke-linecap="round" stroke-linejoin="round"></path>
                <path d="M87.04,95.82336 C88.613385,96.4517486 90.3640317,96.4736431 91.95264,95.8848" id="Path" stroke="#062F4F" stroke-width="0.5" stroke-linecap="round" stroke-linejoin="round"></path>
                <path d="M101.24288,99.28192 C101.24288,99.28192 100.57728,100.22144 101.43488,100.9664" id="Path" stroke="#062F4F" stroke-width="0.5" fill="#B8B7B7" fill-rule="nonzero" stroke-linecap="round" stroke-linejoin="round"></path>
                <path d="M92.928001,104.68096 C92.9274605,104.750996 92.9179976,104.820677 92.89984,104.88832 C92.8525399,105.122941 92.7458932,105.341523 92.59008,105.5232 C92.45696,105.68192 92.29312,105.82272 92.10112,106.0736 C91.997256,106.203501 91.8815599,106.323483 91.75552,106.432 L91.392,106.752 C91.0667954,107.028722 90.690075,107.238398 90.28352,107.36896 L89.8176,107.52 C89.3496801,107.668361 88.8538665,107.706904 88.36864,107.63264 L88.16128,107.60192 C87.9275428,107.562576 87.704438,107.475425 87.50592,107.34592 L87.15776,107.13088 C86.7295966,106.868036 86.3335364,106.556171 85.9776,106.2016 L85.94176,106.1632 C85.7305136,105.951213 85.5809541,105.685723 85.50912,105.3952 C85.4655837,105.197893 85.4655837,104.993467 85.50912,104.79616 L85.61152,104.3328 C85.6320472,104.245444 85.659439,104.159845 85.69344,104.0768 C85.7088,104.04352 85.72928,104 85.7472,103.95392 C85.76512,103.90784 85.7856,103.86688 85.80608,103.81568 C85.8085821,103.80646 85.8085821,103.79674 85.80608,103.78752 L85.888,103.6032 L85.93152,103.49824 C85.952,103.4496 85.97504,103.3984 85.99552,103.34464 L86.0416,103.23712 C86.08768,103.1296 86.13376,103.01696 86.1824,102.8992 L86.28992,102.6432 C86.32576,102.56384 86.35648,102.48448 86.38976,102.40512 L86.50752,102.11328 L86.592,101.91104 C86.70208,101.632 86.80704,101.36576 86.89152,101.14304 C86.89152,101.14304 86.89152,101.14304 86.89152,101.12768 C86.89152,101.11232 86.912,101.07136 86.92224,101.04832 L87.0144,100.79232 L87.04768,100.67712 C87.08608,100.53632 87.11424,100.42112 87.13728,100.33408 C87.4757661,100.512078 87.8275396,100.663571 88.18944,100.7872 C88.5458631,100.919266 88.9229363,100.986879 89.30304,100.98688 C89.73568,100.9664 90.27328,100.9408 90.80832,100.86144 C91.1809392,100.812902 91.5479145,100.728017 91.904,100.608 C91.98848,101.10208 92.09856,101.58848 92.20096,102.00576 C92.20096,102.02368 92.20096,102.03648 92.21376,102.05184 C92.25728,102.2336 92.30336,102.4 92.34432,102.55104 L92.36736,102.6304 C92.47488,103.0272 92.55424,103.27552 92.55424,103.27552 L92.91008,104.512 C92.9220825,104.567516 92.9280902,104.624161 92.928001,104.68096 L92.928001,104.68096 Z" id="Path" stroke="#062F4F" stroke-width="0.5" fill="#062F4F" fill-rule="nonzero" stroke-linecap="round" stroke-linejoin="round"></path>
                <path d="M88.15104,101.77536 L88.15104,101.02272 C88.15104,100.793468 88.2422838,100.573643 88.4046293,100.411778 C88.5669747,100.249913 88.7870692,100.15932 89.01632,100.159996 L89.96352,100.159996 C90.4399871,100.159996 90.82624,100.546253 90.82624,101.02272 L90.82624,101.77536" id="Path" stroke="#062F4F" stroke-width="0.5" fill="#062F4F" fill-rule="nonzero" stroke-linecap="round" stroke-linejoin="round"></path>
                <path d="M104.6016,102.02368 L104.45056,101.53472 L104.37888,101.30432 C104.37888,101.27104 104.36352,101.23264 104.3584,101.19936 C104.283497,100.771863 104.537836,100.355273 104.95232,100.22656 L105.42592,100.08064 C105.46688,100.16512 105.50784,100.2496 105.55136,100.33664 C105.59488,100.42368 105.67424,100.57216 105.73824,100.68736 C105.80224,100.80256 105.90208,100.97664 105.99424,101.12 C106.0864,101.26336 106.16576,101.3888 106.25024,101.52192" id="Path" stroke="#062F4F" stroke-width="0.5" fill="#062F4F" fill-rule="nonzero" stroke-linecap="round" stroke-linejoin="round"></path>
                <polygon id="Path" fill="#A0F48C" fill-rule="nonzero" points="90.30912 29.75744 88.8448 34.25536 90.71872 36.15232 99.82464 33.82272 96.4864 27.75808 93.80608 26.39872 93.11488 25.62304 92.35968 27.06944 91.47904 28.1856"></polygon>
                <path d="M102.98112,43.68128 C103.94112,45.21728 104.26112,45.84448 105.32864,46.54848 C106.1632,47.22688 108.7232,46.60736 109.4016,45.39648 C110.21312,43.95008 109.21728,43.03616 108.60544,41.96352 C108.304986,41.4617459 108.03402,40.9428935 107.79392,40.4096 C106.76992,38.24896 105.6128,34.14528 104.8192,32.11776 C104.0256,30.09024 102.99904,28.928 102.23616,28.416 C101.57824,27.96544 99.13856,26.00192 99.00288,25.82272 C98.9164913,25.7020639 98.8057278,25.6008941 98.67776,25.52576 C98.49344,25.4208 98.38848,25.4976 98.30912,25.67936 C98.1335202,26.0633124 97.8367232,26.3789965 97.46432,26.57792 C96.59648,27.0592 95.48032,26.99264 94.59456,26.5984 C94.3081025,26.4696022 94.0375043,26.3081023 93.78816,26.11712 C93.5761408,25.9604284 93.3751344,25.7893592 93.18656,25.60512" id="Path" stroke="#062F4F" stroke-width="0.5" fill="#A0F48C" fill-rule="nonzero" stroke-linecap="round" stroke-linejoin="round"></path>
                <path d="M85.72416,36.1856 C85.72416,36.1856 87.87712,39.0272 88.04864,41.0496 C88.22016,43.072 87.71328,47.9104 87.1552,49.58976 C86.9734474,50.1163807 86.8297183,50.6553648 86.72512,51.20256 C86.6377554,51.6973464 86.7411213,52.2068582 87.0144,52.62848 C88.09984,54.31808 90.5728,54.59456 92.3904,54.86848 C93.9591416,55.1359631 95.5519212,55.2355118 97.14176,55.16544 C98.680123,55.0562528 100.18465,54.6612384 101.57824,54.00064 C102.66368,53.50656 103.76704,52.608 103.55456,51.27424 L103.55456,51.23072 C103.3344,49.98912 102.89152,47.30112 102.85824,45.65504 C102.81472,43.45856 103.13984,43.20768 103.53664,42.19392 C103.93344,41.18016 104.82944,38.27712 105.0112,37.4144 C105.201771,36.6636347 105.100209,35.8685171 104.72704,35.18976 C104.19712,34.13248 103.00672,31.68512 102.76608,30.62784" id="Path" stroke="#062F4F" stroke-width="0.5" fill="#A0F48C" fill-rule="nonzero" stroke-linecap="round" stroke-linejoin="round"></path>
                <path d="M93.1456,25.55392 C93.1456,25.55392 92.93056,25.46688 92.76928,25.80992 C92.608,26.15296 92.51328,26.18112 92.03712,26.38336 C91.62752,26.56 88.92416,27.52512 87.98464,28.11904 C86.3208583,29.1547796 84.9406018,30.5878184 83.968,32.28928 C82.63936,34.65216 82.10432,36.5056 81.5232,38.62016 C80.9939115,40.5518046 80.7058531,42.5415573 80.6656,44.544 C80.61952,46.37696 80.58112,48.128 81.11616,49.6256 C81.74336,51.38432 82.96192,51.4688 83.3408,51.49696 C83.71968,51.52512 85.00736,51.91424 85.40416,50.5088 C85.99808,48.4224 87.70816,42.16064 87.96416,41.1904 C88.22016,40.22016 89.32608,37.41696 89.42592,37.16096" id="Path" stroke="#062F4F" stroke-width="0.5" fill="#A0F48C" fill-rule="nonzero" stroke-linecap="round" stroke-linejoin="round"></path>
                <path d="M125.03296,53.248 L125.28896,53.19424 C125.433598,53.1633608 125.583888,53.2099022 125.68576,53.31712 L126.3616,54.02112 L124.85888,55.33952 L124.85888,55.33952 C124.77463,55.5876574 124.812596,55.8610144 124.96128,56.0768 L124.96128,56.0768 C125.007828,56.1415882 125.074396,56.1892653 125.15072,56.21248 L125.15072,56.21248 C125.30726,56.2598616 125.477114,56.2262746 125.60384,56.12288 L127.39584,54.66112 L127.43936,54.6304 C127.602946,54.5076188 127.722393,54.335184 127.77984,54.13888 L127.77984,54.13888 C127.79256,54.0858724 127.79256,54.0306076 127.77984,53.9776 L127.75424,53.85216 C127.708383,53.6320527 127.60804,53.4269663 127.4624,53.25568 L126.04928,51.6096 C125.913395,51.4511289 125.719878,51.3534492 125.51168,51.33824 L120.44032,51.00288 L119.65696,51.00288 L118.98368,51.33312" id="Path" stroke="#062F4F" stroke-width="0.5" fill="#B8B7B7" fill-rule="nonzero" stroke-linecap="round" stroke-linejoin="round"></path>
                <path d="M132.64896,94.464 L132.64896,102.82496 C132.64896,106.27072 129.77408,107.21024 126.54336,106.72128 C126.029242,106.428746 125.532613,106.106493 125.056,105.75616 C122.41664,103.82336 120.448,101.05856 120.448,98.14016 L120.448,89.78432 L126.55104,92.60032 L129.9072,93.62432 L132.64896,94.464 Z" id="Path" stroke="#062F4F" stroke-width="0.5" fill="#A0F48C" fill-rule="nonzero" stroke-linecap="round" stroke-linejoin="round"></path>
                <path d="M126.54336,99.79904 C125.193719,99.797629 124.099971,98.7038809 124.09856,97.35424 L124.09856,58.69824 L126.54336,58.69824 L126.54336,92.59264" id="Path" stroke="#062F4F" stroke-width="0.5" fill="#ECECE2" fill-rule="nonzero" stroke-linecap="round" stroke-linejoin="round"></path>
                <path d="M126.54336,99.79904 C125.193719,99.797629 124.099971,98.7038809 124.09856,97.35424 L124.09856,88.27648 C124.50304,88.6016 124.96384,88.97024 126.54336,88.97024 L126.54336,92.59264" id="Path" stroke="#062F4F" stroke-width="0.5" fill="#A0F48C" fill-rule="nonzero" stroke-linecap="round" stroke-linejoin="round"></path>
                <path d="M126.54336,58.68544 L126.54336,66.26048 C125.709611,66.4161162 124.847725,66.2843515 124.09856,65.88672 L124.09856,58.68544 L126.54336,58.68544 Z" id="Path" stroke="#062F4F" stroke-width="0.5" fill="#A0F48C" fill-rule="nonzero" stroke-linecap="round" stroke-linejoin="round"></path>
                <path d="M127.63648,57.89696 C127.63648,58.44992 127.18592,58.7264 126.63552,58.51392 L124.6336,57.74592 C124.066425,57.5106623 123.680207,56.9758988 123.6352,56.36352 L123.6352,54.8736 C123.6352,54.31808 124.0832,54.0416 124.6336,54.25408 L126.63552,55.02208 C127.205258,55.2573979 127.592885,55.7947214 127.63648,56.4096 L127.63648,57.89696 Z M126.1184,59.48928 L127.09632,59.86816 C128.13824,60.26752 128.98048,59.74528 128.98048,58.7008 L128.98048,56.63488 C128.98048,55.59552 128.13824,54.42048 127.09632,54.02368 L124.16,52.89984 C123.1232,52.50048 122.27584,53.02272 122.27584,54.0672 L122.27584,56.13056 C122.27584,57.17504 123.1232,58.34752 124.16,58.74432 L124.51584,58.87744" id="Shape" stroke="#062F4F" stroke-width="0.5" fill="#A0F48C" fill-rule="nonzero" stroke-linecap="round" stroke-linejoin="round"></path>
                <path d="M122.42432,52.41344 C124.98432,52.18816 125.376,53.88288 125.376,53.88288 L125.43744,53.9136 L125.81376,54.09024 L126.38976,54.3616 L126.99648,54.65088 L127.47008,54.8736 C127.70304,54.98368 127.99744,55.08096 128.12544,55.32416 C128.178302,55.4331067 128.201272,55.5541413 128.192,55.67488 C128.194644,55.8280446 128.143965,55.9773654 128.04864,56.09728 C127.956119,56.1927244 127.834591,56.2548384 127.70304,56.27392 C127.476208,56.3162601 127.241917,56.2904256 127.02976,56.19968 L126.93248,56.15616 L126.57152,55.99744 L126.05952,55.76448 L125.45792,55.50848 L124.85632,55.25248 L124.32896,55.01952 L123.9552,54.85312 L123.8144,54.78912 C123.8144,54.78912 123.25376,55.07072 121.7664,54.67648 C120.27904,54.28224 119.76704,53.3504 119.76704,53.3504 L119.25504,52.09856 L119.66208,51.18976" id="Path" stroke="#062F4F" stroke-width="0.5" fill="#B8B7B7" fill-rule="nonzero" stroke-linecap="round" stroke-linejoin="round"></path>
                <path d="M127.95136,99.79904 L126.12864,99.648 C126.12864,99.648 124.78208,96.064 124.78208,95.91808 C124.78208,95.77216 125.81888,92.56192 125.81888,92.56192 L126.04672,92.56192 L126.91456,92.83072 L127.76448,94.46912 L127.95136,99.00544 L127.95136,99.79904 Z" id="Path" fill="#A0F48C" fill-rule="nonzero"></path>
                <path d="M108.60544,41.96352 C108.60544,41.96352 119.7184,49.92512 120.256,50.3168 C120.638334,50.5551109 120.913568,50.9321805 121.024,51.36896 C121.086009,51.8948758 120.997224,52.427583 120.768,52.90496 C120.457682,53.4386057 119.912248,53.7930423 119.29856,53.85984 C118.56384,53.93408 118.12352,53.73696 116.8,53.248 C115.47648,52.75904 106.64448,47.872 105.87904,47.26272 C105.1136,46.65344 104.77568,46.15424 104.30208,45.65504" id="Path" stroke="#062F4F" stroke-width="0.5" fill="#A0F48C" fill-rule="nonzero" stroke-linecap="round" stroke-linejoin="round"></path>
                <path d="M82.0096,61.92896 L82.33216,67.62496 L82.81088,68.39296 L83.74528,69.45792 L84.47232,69.35552 L85.5936,67.44832 L85.42464,62.67904 L85.37856,61.9264 L84.84096,61.1584 C84.84096,61.1584 83.776,60.98432 83.70176,60.98432 C83.62752,60.98432 82.0864,61.46304 82.0864,61.46304 L82.0096,61.92896 Z" id="Path" fill="#B8B7B7" fill-rule="nonzero"></path>
                <path d="M85.27872,61.64736 C85.4292533,61.9872648 85.5226681,62.3496795 85.5552,62.72 C85.69088,63.55456 85.98016,65.69472 86.04672,66.176 C86.1056,66.57792 86.4,68.61568 86.49472,69.27104 C86.5177938,69.4048795 86.5177938,69.5416805 86.49472,69.67552 L86.2976,70.65856 L86.12352,71.5264 L86.05184,71.87968 C86.0357974,72.0240052 86.0022716,72.1658453 85.952,72.30208 C85.80864,72.60672 85.37856,72.55808 85.19936,72.30208 C85.02016,72.04608 85.04832,71.71328 85.04576,71.43936 C85.04576,71.09632 85.06368,70.75584 85.0688,70.41536 L85.0688,69.40416" id="Path" stroke="#062F4F" stroke-width="0.5" fill="#B8B7B7" fill-rule="nonzero" stroke-linecap="round" stroke-linejoin="round"></path>
                <path d="M85.3376,66.95936 L85.42464,69.23776 C85.4298071,69.3736922 85.4168942,69.5097085 85.38624,69.64224 L84.8128,72.13056 C84.7616,72.34816 84.52096,72.576 84.28544,72.4992 C84.0458717,72.4204252 83.8602434,72.2290559 83.7888,71.9872 C83.7475995,71.8311744 83.7354506,71.668901 83.75296,71.50848 L83.93984,69.39904" id="Path" stroke="#062F4F" stroke-width="0.5" fill="#B8B7B7" fill-rule="nonzero" stroke-linecap="round" stroke-linejoin="round"></path>
                <path d="M83.90144,67.072 L83.90144,69.01248 C83.9010498,69.1277404 83.8890424,69.242668 83.8656,69.35552 L83.40736,71.62624 C83.3781424,71.7730175 83.2927015,71.902557 83.16928,71.9872 C82.97984,72.12032 82.7648,71.9872 82.6368,71.82592 C82.5789639,71.7582177 82.531512,71.6822948 82.496,71.60064 C82.4528338,71.4781343 82.4311813,71.3490857 82.432,71.2192 C82.4273064,71.0789285 82.4341562,70.9385087 82.45248,70.79936 C82.48064,70.57152 82.54464,70.35136 82.57792,70.12608 C82.6112,69.9008 82.65472,69.74976 82.69312,69.56288 L82.7264,69.40672 L82.5344,68.25472" id="Path" stroke="#062F4F" stroke-width="0.5" fill="#B8B7B7" fill-rule="nonzero" stroke-linecap="round" stroke-linejoin="round"></path>
                <path d="M82.08128,61.56544 L81.55392,64.20224 C81.5033815,64.4549431 81.4827596,64.7127162 81.49248,64.97024 L81.59744,67.41248 C81.6012748,67.4584802 81.6012748,67.5047198 81.59744,67.55072 L81.2928,70.0032 C81.2699731,70.1731034 81.2699731,70.3452966 81.2928,70.5152 L81.2928,70.5152 C81.3087985,70.6366908 81.3678396,70.7484146 81.4592,70.83008 L81.4592,70.83008 C81.5224916,70.8856553 81.6070184,70.91059 81.6903402,70.8982643 C81.7736619,70.8859386 81.8473494,70.8375994 81.89184,70.76608 C81.942087,70.685891 81.982485,70.5999378 82.01216,70.51008 L82.44224,68.94848 L82.89792,67.29216" id="Path" stroke="#062F4F" stroke-width="0.5" fill="#B8B7B7" fill-rule="nonzero" stroke-linecap="round" stroke-linejoin="round"></path>
                <path d="M86.2848,47.36 C86.23616,47.744 86.21568,48.064 86.14656,49.92 C86.06208,52.1728 85.76256,58.72128 85.63456,60.20864 C85.50656,61.696 85.4528,61.94432 85.12256,62.27968 C84.84352,62.5664 83.64032,62.72512 83.31264,62.67648 C82.6294727,62.5321361 82.0669212,62.0496734 81.82016,61.39648 C80.8457688,58.4812566 80.2646429,55.4490711 80.09216,52.38016 C79.9616,49.1776 80.21504,48.57344 80.3072,47.67744 C80.34304,47.33696 80.4736,46.5408 80.52224,46.20032 C80.58368,45.7856 80.62208,45.248 80.64768,44.84096" id="Path" stroke="#062F4F" stroke-width="0.5" fill="#A0F48C" fill-rule="nonzero" stroke-linecap="round" stroke-linejoin="round"></path>
                <polygon id="Path" fill="#B8B7B7" fill-rule="nonzero" points="70.72 23.37536 70.85568 25.00864 72.00256 26.26816 73.92512 26.4192 75.19744 25.61792 75.85024 25.29536 75.77344 24.28928 73.77408 23.69024 72.27904 23.37536"></polygon>
                <path d="M33.47456,25.088 C30.24128,24.78848 28.33152,27.22816 28.33152,27.22816 C28.33152,27.22816 28.19584,26.49856 27.98848,25.43616 C27.73248,24.05632 27.34592,22.10816 26.9952,20.416 C26.368,17.408 28.97152,17.22368 28.97152,17.22368 L31.08352,17.56672 C31.736995,17.7130094 32.258945,18.2035639 32.44544,18.84672 L33.25184,23.71072 C33.3184,24.13568 33.39264,24.5947733 33.47456,25.088 Z" id="Path" stroke="#062F4F" stroke-width="0.5" fill="#A0F48C" fill-rule="nonzero" stroke-linecap="round" stroke-linejoin="round"></path>
                <path d="M89.00864,25.83296 C89.0060232,25.8669666 88.9991427,25.9005095 88.98816,25.9328 C88.8591008,26.4423352 88.400185,26.798918 87.87456,26.7981822 C87.8128718,26.7989146 87.7512207,26.7946333 87.69024,26.78528 L26.95424,16.896 C26.3887464,16.8053684 25.9767898,16.3114576 25.9888504,15.73888 C25.9888504,15.68512 25.9888504,15.6288 26.00448,15.57248 C26.0528453,15.2714472 26.219087,15.0020627 26.4664729,14.8238489 C26.7138587,14.645635 27.0220249,14.5732616 27.32288,14.62272 L88.064,24.512 C88.3649339,24.5609033 88.6339106,24.7278742 88.8112557,24.975869 C88.9886009,25.2238638 89.0596499,25.5323761 89.00864,25.83296 L89.00864,25.83296 Z" id="Path" stroke="#062F4F" stroke-width="0.5" fill="#ECECE2" fill-rule="nonzero" stroke-linecap="round" stroke-linejoin="round"></path>
                <path d="M28.6976,14.96832 L28.1856,14.80704 L27.6736,15.1808 L27.36896,15.7696 L27.52768,16.62208 L28.01408,16.9728 L28.32128,16.99584 L29.23264,17.14432 L28.928,16.29952 C28.9754106,16.0659441 29.0439594,15.8371624 29.1328,15.616 L29.55264,15.104 L28.6976,14.96832 Z" id="Path" fill="#A0F48C" fill-rule="nonzero"></path>
                <path d="M28.672,14.848 C28.6097644,14.844207 28.5473556,14.844207 28.48512,14.848 C27.9220229,14.8493009 27.4423856,15.2574798 27.35104,15.81312 C27.35104,15.86688 27.35104,15.9232 27.33824,15.97696 C27.3096743,16.5550097 27.7316158,17.057321 28.30592,17.12896" id="Path" stroke="#062F4F" stroke-width="0.5" stroke-linecap="round" stroke-linejoin="round"></path>
                <path d="M29.93664,17.37216 C29.3705566,17.2825662 28.958063,16.7880115 28.97152,16.21504 C28.97152,16.16128 28.97152,16.10496 28.98688,16.0512 C29.0780648,15.4965113 29.5562722,15.0886286 30.1184,15.08608 C30.1814916,15.0823504 30.2447484,15.0823504 30.30784,15.08608" id="Path" stroke="#062F4F" stroke-width="0.5" stroke-linecap="round" stroke-linejoin="round"></path>
                <path d="M69.8624,22.7072 L69.90848,19.968 C69.9111188,19.8334931 69.9416281,19.7009957 69.99808,19.57888 L69.99808,19.57888 C70.0747009,19.4129025 70.19845,19.2731284 70.35392,19.17696 L70.35392,19.17696 C70.56877,19.0448757 70.8347771,19.0266954 71.0656,19.12832 L71.10144,19.14368 C71.2572716,19.213422 71.3827107,19.3370431 71.45472,19.49184 L71.45472,19.49184 C71.5362924,19.6691683 71.577392,19.8624235 71.57504,20.0576 L71.552,21.67552" id="Path" stroke="#062F4F" stroke-width="0.5" fill="#B8B7B7" fill-rule="nonzero" stroke-linecap="round" stroke-linejoin="round"></path>
                <path d="M74.752,20.59776 C74.8080876,20.5370365 74.873827,20.4860019 74.94656,20.44672 C75.0264562,20.4060715 75.1133126,20.3808831 75.20256,20.37248 C75.3290844,20.3643298 75.455281,20.3927684 75.56608,20.4544 L75.59424,20.47232 C75.7102412,20.5377029 75.8005274,20.6406292 75.85024,20.76416 C75.8973979,20.8782046 75.9250889,20.9993527 75.93216,21.12256 C75.9372978,21.1890209 75.9372978,21.2557791 75.93216,21.32224 L75.93216,22.0288 L75.52,23.20384 C75.4891387,23.302805 75.3983676,23.3708834 75.29472,23.3728 L75.27168,23.3728 C75.000426,23.3766299 74.740827,23.2627051 74.56,23.06048 L74.56,23.06048 C74.519645,23.0150087 74.4844442,22.9652125 74.45504,22.912" id="Path" stroke="#062F4F" stroke-width="0.5" fill="#B8B7B7" fill-rule="nonzero" stroke-linecap="round" stroke-linejoin="round"></path>
                <path d="M73.24672,20.224 C73.3211266,20.106949 73.420858,20.0080924 73.53856,19.93472 C73.6247911,19.8800307 73.721643,19.8442566 73.82272,19.82976 C73.9676651,19.8061302 74.1163596,19.8257187 74.25024,19.88608 L74.28864,19.90144 C74.4292835,19.9625553 74.5455045,20.0688659 74.61888,20.20352 C74.6817946,20.3272619 74.7241612,20.460414 74.74432,20.59776 C74.7554741,20.6706327 74.7614624,20.7442027 74.76224,20.81792 L74.81344,21.60896 L74.4448,22.96064 C74.4139522,23.0786823 74.3105981,23.1634326 74.1888,23.17056 L74.16064,23.17056 C73.8492657,23.2030995 73.5388839,23.100571 73.30816,22.88896 L73.30816,22.88896 C73.1927319,22.781765 73.1049076,22.6482721 73.05216,22.49984 L73.0368,22.35904" id="Path" stroke="#062F4F" stroke-width="0.5" fill="#B8B7B7" fill-rule="nonzero" stroke-linecap="round" stroke-linejoin="round"></path>
                <path d="M71.54432,21.52704 L71.58784,20.2752 C71.5910758,20.141043 71.6206497,20.0088303 71.67488,19.88608 C71.7523768,19.7206763 71.8759257,19.5811283 72.03072,19.48416 C72.24557,19.3520757 72.5115771,19.3338954 72.7424,19.43552 L72.7808,19.45088 C72.9378924,19.520057 73.0637623,19.6450148 73.13408,19.8016 C73.212908,19.9798277 73.2538791,20.1724788 73.2544,20.36736 L73.23904,21.504" id="Path" stroke="#062F4F" stroke-width="0.5" fill="#B8B7B7" fill-rule="nonzero" stroke-linecap="round" stroke-linejoin="round"></path>
                <path d="M72.83712,25.62304 C72.6566657,24.8468716 72.1512541,24.1857336 71.4496,23.808 L72.82944,22.58944 C73.0550948,22.389443 73.215605,22.1263847 73.29024,21.83424 L73.29024,21.83424 C73.3055629,21.7772249 73.3055629,21.7171751 73.29024,21.66016 L73.26208,21.56288 C73.1882734,21.3160559 73.0223685,21.1070707 72.79872,20.9792 L72.79872,20.9792 C72.79872,20.9792 69.84192,22.592 69.68576,22.87872 C69.5296,23.16544 69.34272,23.94112 69.46048,24.9984 C69.57824,26.05568 70.61248,26.58304 70.61248,26.58304 C70.8075501,26.8219032 70.9790178,27.0791048 71.12448,27.35104 L71.75424,27.68896 L72.64512,27.91936 L74.89792,27.63008 C75.2208091,27.2094853 75.4899799,26.750261 75.6992,26.26304 C75.8139559,25.8646033 75.8691663,25.451388 75.86304,25.0368" id="Path" stroke="#062F4F" stroke-width="0.5" fill="#B8B7B7" fill-rule="nonzero" stroke-linecap="round" stroke-linejoin="round"></path>
                <path d="M33.47456,25.088 C30.24128,24.78848 28.33152,27.22816 28.33152,27.22816 C28.33152,27.22816 28.19584,26.49856 27.98848,25.43616 C28.7358339,24.8519015 29.5948404,24.4267543 30.51264,24.18688 C31.4044643,23.9250867 32.3237026,23.7678712 33.25184,23.7184 C33.3184,24.13824 33.39264,24.5947733 33.47456,25.088 Z" id="Path" stroke="#062F4F" stroke-width="0.5" fill="#ECECE2" fill-rule="nonzero" stroke-linecap="round" stroke-linejoin="round"></path>
                <rect id="Rectangle" stroke="#062F4F" stroke-width="0.5" fill="#B8B7B7" fill-rule="nonzero" stroke-linecap="round" stroke-linejoin="round" x="50.84672" y="16.9344" width="7.29088" height="8.71168"></rect>
                <rect id="Rectangle" fill="#062F4F" fill-rule="nonzero" x="50.84672" y="17.1392" width="7.29088" height="2.1248"></rect>
                <path d="M39.49312,65.09312 L42.71104,65.20832 C42.71104,65.20832 41.216,60.28032 41.216,60.23424 C41.216,60.18816 39.85408,59.32032 39.85408,59.32032 L39.104,59.49184 L38.87616,61.59104 L38.52032,64.3072 L38.42048,64.8192 L39.49312,65.09312 Z" id="Path" fill="#B8B7B7" fill-rule="nonzero"></path>
                <path d="M41.3312,71.60832 L41.5872,72.08192 C41.7227354,72.3107684 42.0169544,72.3883144 42.24768,72.256 L42.24768,72.256 C42.361425,72.193804 42.4412851,72.083879 42.46528,71.95648 L42.49344,71.79264 C42.5331209,71.5751283 42.5331209,71.3522317 42.49344,71.13472 L42.49344,71.13472 C42.4620052,70.9683206 42.4095307,70.8065959 42.33728,70.65344 L42.10432,70.15424 C41.9970584,69.9274173 41.9386241,69.6805979 41.9328,69.42976 L41.90208,67.86048 C41.8999181,67.6616369 41.914476,67.462964 41.9456,67.26656 L42.2528,65.41056 L41.44384,64.2176 L40.128,67.21792 L40.52736,70.97344 L41.3312,71.60832 Z" id="Path" stroke="#062F4F" stroke-width="0.5" fill="#B8B7B7" fill-rule="nonzero" stroke-linecap="round" stroke-linejoin="round"></path>
                <path d="M40.54016,72.28672 L40.79616,72.76032 C40.9334378,72.9870635 41.2263823,73.0631382 41.45664,72.93184 L41.45664,72.93184 C41.5702616,72.8707528 41.6502246,72.7616268 41.67424,72.63488 L41.7024,72.47104 C41.7420809,72.2535283 41.7420809,72.0306317 41.7024,71.81312 L41.7024,71.81312 C41.6706453,71.6459798 41.6181879,71.4834478 41.54624,71.32928 L41.31328,70.83264 C41.2056693,70.6050328 41.1472264,70.3573046 41.14176,70.1056 L41.11104,68.53632 C41.1076872,68.338291 41.1222532,68.1403647 41.15456,67.94496 L41.46176,66.08896 L40.6528,64.89344 L39.33696,67.89376 L39.73376,71.65184 L40.54016,72.28672 Z" id="Path" stroke="#062F4F" stroke-width="0.5" fill="#B8B7B7" fill-rule="nonzero" stroke-linecap="round" stroke-linejoin="round"></path>
                <path d="M39.232,59.49184 L38.44608,65.51808 C38.4307629,65.6292106 38.423065,65.7412588 38.42304,65.85344 C38.42304,66.28352 38.41024,67.44576 38.42304,68.24192 C38.4384,69.09184 39.24224,72.3072 39.4752,73.21856 C39.5185103,73.3716659 39.6441835,73.4874435 39.80032,73.51808 L39.80032,73.51808 C39.956879,73.5550833 40.120355,73.4945366 40.21504,73.36448 L40.25856,73.30048 C40.3980819,73.0986816 40.4859828,72.8657443 40.51456,72.62208 L40.51456,72.62208 C40.5739039,72.094499 40.5601204,71.5612507 40.4736,71.03744 L40.2176,69.41696 C40.197256,69.2981818 40.2051487,69.176283 40.24064,69.06112 L41.28768,65.66656" id="Path" stroke="#062F4F" stroke-width="0.5" fill="#B8B7B7" fill-rule="nonzero" stroke-linecap="round" stroke-linejoin="round"></path>
                <path d="M41.11104,64.48896 C41.11104,66.57536 42.3424,66.83904 42.3424,66.83904 L42.44992,68.2496 C42.4726645,68.5219788 42.5329691,68.7899035 42.62912,69.04576 L42.62912,69.04576 C42.6761648,69.1630892 42.745742,69.2700642 42.83392,69.36064 L42.83392,69.36064 C42.9976442,69.5216509 43.2119818,69.6211325 43.44064,69.64224 L43.44064,69.64224 C43.5696146,69.6551388 43.6988656,69.6205505 43.80416,69.54496 L43.80416,69.54496 C43.8867049,69.4853421 43.9368445,69.3907391 43.93984,69.28896 C43.93984,68.77696 43.93984,67.17184 43.93984,66.58048 C43.93984,65.87392 43.88864,64.06912 43.584,63.1296 C43.27936,62.19008 42.2656,60.416 42.2656,60.416 L41.11104,58.82112 L40.2688,58.42944 L39.55712,58.32192 L39.232,59.50208" id="Path" stroke="#062F4F" stroke-width="0.5" fill="#B8B7B7" fill-rule="nonzero" stroke-linecap="round" stroke-linejoin="round"></path>
                <path d="M68.2752,104.89856 C68.2742707,105.095443 68.2449557,105.291164 68.18816,105.47968 C68.0993542,105.770407 67.9199614,106.025145 67.67616,106.20672 L67.26144,106.5216 C66.8963589,106.799587 66.4739899,106.992845 66.02496,107.08736 L65.43872,107.2128 C65.1785906,107.267734 64.9135438,107.29604 64.64768,107.29728 L61.47072,107.29728 C61.2394439,107.29728 61.008751,107.274082 60.78208,107.22816 L60.60032,107.19232 C60.0473335,107.081566 59.5375079,106.815107 59.13088,106.42432 L59.01568,106.31168 C58.8077071,106.113489 58.6724533,105.851096 58.63168,105.56672 L58.56768,105.1136 C58.5245535,104.825797 58.5544844,104.53177 58.65472,104.25856 L59.26912,102.86848 C59.31264,102.7712 59.35872,102.67648 59.40992,102.58176 C59.8697098,101.773596 60.132805,100.868549 60.17792,99.93984 C60.19328,99.2384 59.38688,91.60448 58.50368,83.55584 C57.6,75.28704 56.61952,66.58304 56.384,64.4992 C56.3499955,64.1886524 56.2724341,63.8844396 56.1536,63.59552 L56.0768,63.41888 C55.8812541,62.9476333 55.5247063,62.5611464 55.07072,62.32832 C54.9792325,62.2798211 54.8773073,62.2543398 54.77376,62.25408 C54.6577204,62.2544181 54.5438178,62.2853219 54.44352,62.34368 C54.1562133,62.5143818 53.9324176,62.7741286 53.80608,63.08352 L53.72672,63.27552 C53.5365928,63.7414975 53.4175054,64.2333802 53.37344,64.73472 L51.74528,83.47904 L50.46528,98.28864 L50.56,100.12928 C50.5898177,100.722712 50.5735556,101.317563 50.51136,101.90848 L50.3424,103.5264 C50.3057175,103.869394 50.1092888,104.17495 49.81248,104.35072 L49.74336,104.39168 L43.264,106.11456 C42.92352,106.24512 42.496,105.63584 42.12736,105.67424 L40.51456,107.27168 C40.3641208,107.287729 40.2119945,107.270243 40.06912,107.22048 L39.78752,107.1232 C39.5289625,107.033 39.3164488,106.844405 39.19616,106.5984 C39.1451497,106.493082 39.1188811,106.3775 39.1193536,106.26048 C39.1198031,106.180649 39.1318767,106.101309 39.1552,106.02496 C39.2256238,105.794079 39.33469,105.576813 39.47776,105.3824 L43.74784,99.52256 C43.39456,93.63456 43.19488,88.2432 43.10528,83.38176 C42.68544,60.72576 44.67968,49.38752 44.67968,49.38752 L65.0496,48.07936 C65.0496,48.07936 67.0976,61.77536 67.07456,82.93376 C67.07456,87.77728 66.95424,93.01248 66.6752,98.56512 C66.8412101,99.6505958 67.0789575,100.72388 67.38688,101.77792 C67.64288,102.528 67.99104,103.6544 68.19328,104.33792 C68.2474423,104.51988 68.2752,104.70871 68.2752,104.89856 L68.2752,104.89856 Z" id="Path" stroke="#062F4F" stroke-width="0.5" fill="#062F4F" fill-rule="nonzero" stroke-linecap="round" stroke-linejoin="round"></path>
                <path d="M68.2752,104.89856 C68.2742707,105.095443 68.2449557,105.291164 68.18816,105.47968 C68.0993542,105.770407 67.9199614,106.025145 67.67616,106.20672 L67.26144,106.5216 C66.8963589,106.799587 66.4739899,106.992845 66.02496,107.08736 L65.43872,107.2128 C65.1785906,107.267734 64.9135438,107.29604 64.64768,107.29728 L61.47072,107.29728 C61.2394439,107.29728 61.008751,107.274082 60.78208,107.22816 L60.60032,107.19232 C60.0473335,107.081566 59.5375079,106.815107 59.13088,106.42432 L59.01568,106.31168 C58.8077071,106.113489 58.6724533,105.851096 58.63168,105.56672 L58.56768,105.1136 C58.5245535,104.825797 58.5544844,104.53177 58.65472,104.25856 L59.26912,102.86848 C59.31264,102.7712 59.35872,102.67648 59.40992,102.58176 C59.8697098,101.773596 60.132805,100.868549 60.17792,99.93984 C60.19328,99.2384 59.38688,91.60448 58.50368,83.55584 C61.3537052,84.2504255 64.3495855,84.036498 67.072,82.944 C67.072,87.78752 66.95168,93.02272 66.67264,98.57536 C66.8386501,99.6608358 67.0763975,100.73412 67.38432,101.78816 C67.64032,102.53824 67.98848,103.66464 68.19072,104.34816 C68.2447825,104.526705 68.2732262,104.71202 68.2752,104.89856 L68.2752,104.89856 Z" id="Path" stroke="#062F4F" stroke-width="0.5" fill="#ECECE2" fill-rule="nonzero" stroke-linecap="round" stroke-linejoin="round"></path>
                <path d="M50.56,100.12928 C50.5898177,100.722712 50.5735556,101.317563 50.51136,101.90848 L50.3424,103.5264 C50.3057175,103.869394 50.1092888,104.17495 49.81248,104.35072 L49.74336,104.39168 L45.52192,106.01984 C44.21632,106.53184 42.96192,107.04384 41.55648,107.2256 C40.78848,107.32288 39.59808,107.42272 39.1936,106.5984 C39.1425897,106.493082 39.1163211,106.3775 39.1167936,106.26048 C39.1172431,106.180649 39.1293167,106.101309 39.15264,106.02496 C39.2230638,105.794079 39.33213,105.576813 39.4752,105.3824 L43.74528,99.52256 C43.392,93.63456 43.19232,88.2432 43.10272,83.38176 C47.0144,84.50048 50.07616,83.98592 51.75296,83.47904 L50.47296,98.28864 L50.56,100.12928 Z" id="Path" stroke="#062F4F" stroke-width="0.5" fill="#ECECE2" fill-rule="nonzero" stroke-linecap="round" stroke-linejoin="round"></path>
                <polyline id="Path" stroke="#062F4F" stroke-width="0.5" fill="#ECECE2" fill-rule="nonzero" stroke-linecap="round" stroke-linejoin="round" points="43.31264 59.24608 43.31264 61.74976 38.53568 61.74976 38.53568 59.42272"></polyline>
                <path d="M44.57472,50.02752 C44.4484267,50.91328 44.3306667,51.8203733 44.22144,52.7488 C44.08576,53.98272 44.07296,54.36928 43.84256,56.5376 C43.7558931,57.1372362 43.7071562,57.7417444 43.69664,58.34752 C43.20256,60.13952 41.7536,59.95776 41.01376,59.95776 C40.69888,59.95776 40.46592,59.95776 39.98976,59.95776 C38.8030845,59.9502685 37.8139281,59.0473179 37.69856,57.86624 C37.37856,54.45888 38.28992,49.30304 38.5536,47.6672 C38.85568,45.7728 38.93248,40.54784 38.85568,38.65344 C38.77888,36.75904 38.26432,33.96608 38.90944,31.78752 C39.4862513,29.8022071 40.7397299,28.0813911 42.45248,26.92352 C43.58144,26.15552 50.52672,22.75328 50.52672,22.75328 L53.08672,24.3712 L54.48704,24.2816 L56.1536,24.38912 L58.624,22.208 C58.624,22.208 64.20992,24.09984 65.39776,24.6144 C66.5856,25.12896 67.97056,25.46432 69.33248,27.85792 C70.6944,30.25152 74.19648,36.70528 76.29824,39.64928 C78.16448,42.25792 78.18752,42.7776 78.1312,43.48928 C78.06464,44.27264 76.92288,46.28224 75.16928,46.77632 C73.58464,47.2192 71.168,46.26432 69.79328,44.03968 C68.4672,41.88672 65.69728,37.39904 65.69728,37.39904" id="Path" stroke="#062F4F" stroke-width="0.5" fill="#ECECE2" fill-rule="nonzero" stroke-linecap="round" stroke-linejoin="round"></path>
                <path d="M66.33472,30.90432 C66.33472,30.90432 66.0992,33.83808 65.82272,35.46368 C65.54624,37.08928 65.728,43.59168 65.82272,44.9792 C65.91744,46.36672 66.2016,49.37984 63.12448,51.16416 C60.04736,52.94848 56.10496,53.1072 54.6432,52.7488 L54.47936,52.7488 C53.02016,53.1072 49.07776,52.94848 46.00064,51.16416 C42.92352,49.37984 43.20768,46.36672 43.3024,44.9792 C43.39712,43.59168 43.58656,37.08928 43.3024,35.46368 C43.01824,33.83808 42.88768,32.07424 42.88768,32.07424" id="Path" stroke="#062F4F" stroke-width="0.5" fill="#ECECE2" fill-rule="nonzero" stroke-linecap="round" stroke-linejoin="round"></path>
                <path d="M54.49216,24.27904 L54.49216,52.7488" id="Path" stroke="#062F4F" stroke-width="0.5" stroke-linecap="round" stroke-linejoin="round"></path>
                <path d="M75.92704,28.82048 L75.6864,26.26048 C75.6864,26.26048 74.58048,27.31264 73.58208,27.40224 C72.51968,27.50208 71.57504,27.44832 70.60736,26.61376 L70.9376,29.056 L71.02208,29.39648" id="Path" stroke="#062F4F" stroke-width="0.5" fill="#ECECE2" fill-rule="nonzero" stroke-linecap="round" stroke-linejoin="round"></path>
                <path d="M72.21248,46.32064 C72.99328,46.65344 73.62816,47.08864 74.86464,46.848 C76.10112,46.60736 77.37344,45.51936 77.7472,44.544 C78.3315362,43.1094806 78.5087048,41.5415387 78.2592,40.0128 C77.93408,37.9136 77.13792,32.48896 76.95616,31.54944 C76.7744,30.60992 76.6848,29.28896 76.08832,28.87168 C75.99616,28.7616 75.88608,28.79744 75.57632,28.94336 C74.3594015,29.2950946 73.0977123,29.4675743 71.83104,29.45536 C71.6447621,29.450901 71.4601613,29.418984 71.2832,29.36064 C71.1505124,29.3039303 70.9963883,29.3556719 70.9248,29.48096 C70.9248,29.48096 70.70208,29.70368 70.6688,30.92224 C70.63552,32.1408 70.98624,35.55584 70.83776,37.07904 C70.7584,37.90336 70.58176,39.63904 70.47168,41.23904" id="Path" stroke="#062F4F" stroke-width="0.5" fill="#ECECE2" fill-rule="nonzero" stroke-linecap="round" stroke-linejoin="round"></path>
                <path d="M54.49216,24.27904 C54.49216,24.27904 51.72992,23.1296 50.84672,22.016 C50.0352,22.00064 49.89952,23.13216 50.75968,24.576 C51.61984,26.01984 52.1984,27.17696 52.61312,27.20768 C53.02784,27.2384 54.49216,24.27904 54.49216,24.27904 Z" id="Path" stroke="#062F4F" stroke-width="0.5" fill="#ECECE2" fill-rule="nonzero" stroke-linecap="round" stroke-linejoin="round"></path>
                <path d="M54.49216,24.27904 C54.49216,24.27904 57.2544,23.1296 58.1376,22.016 C58.94912,22.00064 59.0848,23.13216 58.22464,24.576 C57.36448,26.01984 56.78848,27.17696 56.3712,27.20768 C55.95392,27.2384 54.49216,24.27904 54.49216,24.27904 Z" id="Path" stroke="#062F4F" stroke-width="0.5" fill="#ECECE2" fill-rule="nonzero" stroke-linecap="round" stroke-linejoin="round"></path>
                <path d="M63.232,12.01408 C63.232,13.29408 62.2464,14.48448 61.34528,14.48448 C60.44416,14.48448 59.40992,13.46048 59.40992,12.18048 C59.40992,10.90048 60.43392,9.87648 61.34528,9.87648 C62.65344,9.86112 63.232,10.752 63.232,12.01408 Z" id="Path" stroke="#062F4F" stroke-width="0.5" fill="#B8B7B7" fill-rule="nonzero" stroke-linecap="round" stroke-linejoin="round"></path>
                <path d="M62.2464,11.11808 C61.7335901,11.7019265 61.447433,12.4504772 61.44,13.22752" id="Path" stroke="#062F4F" stroke-width="0.5" stroke-linecap="round" stroke-linejoin="round"></path>
                <path d="M45.74208,12.01408 C45.74208,13.29408 46.72768,14.48448 47.6288,14.48448 C48.52992,14.48448 49.56416,13.46048 49.56416,12.18048 C49.56416,10.90048 48.54016,9.87648 47.6288,9.87648 C46.336,9.86112 45.74208,10.752 45.74208,12.01408 Z" id="Path" stroke="#062F4F" stroke-width="0.5" fill="#B8B7B7" fill-rule="nonzero" stroke-linecap="round" stroke-linejoin="round"></path>
                <path d="M46.73792,11.11808 C47.2479488,11.7030284 47.5313363,12.4514621 47.53664,13.22752" id="Path" stroke="#062F4F" stroke-width="0.5" stroke-linecap="round" stroke-linejoin="round"></path>
                <path d="M54.49984,20.40576 C54.7866127,20.386833 55.0706149,20.3379263 55.3472,20.25984 C55.98208,20.07296 57.53088,19.264 59.2512,17.664 C60.70016,16.31488 60.68736,13.46304 60.7616,12.544 C60.83584,11.62496 60.90752,10.28608 60.90752,10.28608 C60.9510102,9.50230247 60.9458804,8.71658286 60.89216,7.93344 C60.81792,6.39744 60.7616,6.1952 59.6992,4.51584 C58.6368,2.83648 55.84128,2.19392 54.49216,2.21184 C53.14304,2.22976 50.35008,2.83904 49.28768,4.51584 C48.22528,6.19264 48.1664,6.4 48.09216,7.936 C48.0398414,8.71919484 48.0347121,9.5048288 48.0768,10.28864 C48.0768,10.28864 48.14848,11.63264 48.22272,12.54656 C48.29696,13.46048 48.28416,16.31488 49.73568,17.66656 C51.456,19.264 52.992,20.07296 53.63712,20.25984 C53.9137051,20.3379263 54.1977073,20.386833 54.48448,20.40576 L54.49984,20.40576 Z" id="Path" stroke="#062F4F" stroke-width="0.5" fill="#B8B7B7" fill-rule="nonzero" stroke-linecap="round" stroke-linejoin="round"></path>
                <path d="M52.31616,15.872 C52.31616,15.872 54.02112,17.55904 56.32256,16.09216" id="Path" stroke="#062F4F" stroke-width="0.5" stroke-linecap="round" stroke-linejoin="round"></path>
                <path d="M54.68928,13.77792 C54.97856,13.61152 57.69728,13.89312 58.496,14.92992 C58.5321166,14.9780385 58.5435894,15.0403043 58.5269945,15.0981351 C58.5103995,15.155966 58.467656,15.202674 58.41152,15.22432 C56.0384,16.128 53.94176,14.43328 53.94176,14.43328 C53.94176,14.43328 53.68576,14.15424 53.9136,13.94688 C54.14144,13.73952 54.68928,13.77792 54.68928,13.77792 Z" id="Path" fill="#062F4F" fill-rule="nonzero"></path>
                <path d="M53.46048,13.77792 C53.17376,13.61152 50.45504,13.89312 49.65376,14.92992 C49.6177557,14.9783835 49.6066436,15.0409595 49.6237609,15.0988561 C49.6408781,15.1567527 49.6842309,15.2032261 49.7408,15.22432 C52.11392,16.128 54.208,14.43328 54.208,14.43328 C54.208,14.43328 54.464,14.15424 54.23616,13.94688 C54.00832,13.73952 53.46048,13.77792 53.46048,13.77792 Z" id="Path" fill="#062F4F" fill-rule="nonzero"></path>
                <path d="M53.7984,9.56416 C53.7984,9.56416 53.2864,12.02944 53.31712,13.94944 C53.34784,15.86944 55.17312,13.0048 55.17312,13.0048" id="Path" stroke="#062F4F" stroke-width="0.5" fill="#B8B7B7" fill-rule="nonzero" stroke-linecap="round" stroke-linejoin="round"></path>
                <circle id="Oval" fill="#062F4F" fill-rule="nonzero" cx="56.87808" cy="10.18112" r="1"></circle>
                <circle id="Oval" fill="#062F4F" fill-rule="nonzero" cx="52.38016" cy="10.18112" r="1"></circle>
                <path d="M58.28096,8.57856 C58.28096,8.57856 57.344,7.7312 55.552,8.57856" id="Path" stroke="#062F4F" stroke-width="0.5" stroke-linecap="round" stroke-linejoin="round"></path>
                <path d="M50.95936,8.57856 C50.95936,8.57856 51.90144,7.7312 53.6832,8.57856" id="Path" stroke="#062F4F" stroke-width="0.5" stroke-linecap="round" stroke-linejoin="round"></path>
                <path d="M60.928,11.11808 C60.928,11.11808 60.13184,11.03616 59.904,8.9728 C59.73248,8.2048 58.88,7.82336 58.7264,7.02464 C58.55488,6.06976 58.816,6.21568 59.04896,5.96992 C59.28192,5.72416 61.35296,5.26592 61.65248,6.60992 C61.8755095,7.71180946 61.8021883,8.85314581 61.44,9.91744 C61.4394259,10.0772808 61.3998837,10.2345707 61.3248,10.37568 L60.928,11.11808 Z" id="Path" fill="#062F4F" fill-rule="nonzero"></path>
                <path d="M48.06912,11.10272 C48.06912,11.10272 48.86528,11.0208 49.09312,8.96 C49.26464,8.192 50.11712,7.81056 50.27072,7.01184 C50.44224,6.05696 50.18112,6.20288 49.94816,5.95456 C49.7152,5.70624 49.24672,6.44608 47.41632,7.19616 C47.08608,8.7168 47.4368,9.62816 47.56736,9.90464 C47.6705242,10.0014241 47.7487012,10.121764 47.7952,10.25536 L48.06912,11.10272 Z" id="Path" fill="#062F4F" fill-rule="nonzero"></path>
                <path d="M48.09216,4.38528 C48.09216,4.38528 48.40704,2.44224 48.56064,1.63328 C48.71424,0.82432 49.58976,0.256 50.432,0.18688 C51.6864,0.06912 52.96128,0.11008 53.39136,0.47616 C53.82144,0.84224 54.016,1.024 54.46912,1.04448 C54.92224,1.06496 55.0528,0.88576 55.45472,0.55808 C55.94624,0.15616 56.63744,0.15872 57.95072,0.18432 C58.79552,0.20224 59.44832,0.45568 59.8144,1.18272 C60.15744,1.86624 60.5824,4.01408 60.5824,4.01408" id="Path" stroke="#062F4F" stroke-width="0.5" fill="#A0F48C" fill-rule="nonzero" stroke-linecap="round" stroke-linejoin="round"></path>
                <path d="M60.88704,5.92896 C60.97152,6.56384 54.43072,6.34112 54.43072,6.34112 L49.22112,6.74304 L47.90784,6.42816 C47.90784,6.42816 47.95904,5.3504 48.09216,4.38016 C48.09216,4.38016 60.57472,3.93728 60.58752,4.00896 C60.75136,4.864 60.8384,5.56544 60.88704,5.92896 Z" id="Path" stroke="#062F4F" stroke-width="0.5" fill="#ECECE2" fill-rule="nonzero" stroke-linecap="round" stroke-linejoin="round"></path>
                <path d="M43.33824,7.70304 C43.33824,7.70304 47.99488,7.36768 51.57888,6.88128 C55.16288,6.39488 64.66304,6.7584 65.69728,6.80704 C65.8360304,6.83053453 65.9782342,6.79406277 66.0885496,6.70668905 C66.1988651,6.61931534 66.2669343,6.48924338 66.27584,6.3488 C66.31936,5.92384 65.74592,5.88288 65.74592,5.88288 C64.72192,5.82656 55.21152,5.47328 51.63008,5.95712 C48.04864,6.44096 43.38688,6.77888 43.38688,6.77888 C43.38688,6.77888 42.69824,6.77888 42.69307,7.2576 C42.688,7.73632 43.07712,7.72352 43.33824,7.70304 Z" id="Path" stroke="#062F4F" stroke-width="0.5" fill="#A0F48C" fill-rule="nonzero" stroke-linecap="round" stroke-linejoin="round"></path>
                <path d="M2.12992,67.11552 L5.34016,67.39968 C5.34016,67.39968 4.096,62.4 4.096,62.35136 C4.096,62.30272 2.78272,61.37088 2.78272,61.37088 L2.01472,61.504 L1.6896,63.58784 L1.19296,66.28352 L1.07008,66.79552 L2.12992,67.11552 Z" id="Path" fill="#B8B7B7" fill-rule="nonzero"></path>
                <path d="M3.63008,73.728 L3.86816,74.2144 C3.99280253,74.448551 4.28206937,74.5396587 4.5184,74.4192 L4.5184,74.4192 C4.63547037,74.363842 4.72113924,74.2584034 4.75136,74.13248 L4.78976,73.9712 C4.83878757,73.7553916 4.84832818,73.5324884 4.81792,73.31328 L4.81792,73.31328 C4.79584542,73.1453098 4.75195517,72.9809365 4.68736,72.82432 L4.48,72.31232 C4.3851862,72.079286 4.33985375,71.8290858 4.34688,71.5776 L4.39808,70.01088 C4.40592353,69.8128498 4.43076148,69.6158592 4.47232,69.42208 L4.864,67.584 L4.11904,66.34752 L2.6496,69.27616 L2.85184,73.0496 L3.63008,73.728 Z" id="Path" stroke="#062F4F" stroke-width="0.5" fill="#B8B7B7" fill-rule="nonzero" stroke-linecap="round" stroke-linejoin="round"></path>
                <path d="M2.816,74.3552 L3.05408,74.8416 C3.17977177,75.0759148 3.46901245,75.1677912 3.70688,75.04896 L3.70688,75.04896 C3.824552,74.9930633 3.91031701,74.8865639 3.93984,74.75968 L3.97568,74.5984 C4.02683654,74.3829248 4.03725554,74.1597845 4.0064,73.94048 L4.0064,73.94048 C3.98310888,73.7727534 3.93925913,73.6085318 3.87584,73.45152 L3.66848,72.93952 C3.57336327,72.7074703 3.52801223,72.4580396 3.53536,72.20736 L3.58656,70.63808 C3.59346023,70.4399729 3.61830862,70.2428995 3.6608,70.04928 L4.06272,68.2112 L3.3152,66.97728 L1.83296,69.90848 L2.048,73.67936 L2.816,74.3552 Z" id="Path" stroke="#062F4F" stroke-width="0.5" fill="#B8B7B7" fill-rule="nonzero" stroke-linecap="round" stroke-linejoin="round"></path>
                <path d="M2.15808,61.51168 L1.0624,67.48928 C1.04331307,67.5985377 1.03049213,67.7087978 1.024,67.81952 C0.9984,68.2496 0.92928,69.41184 0.90368,70.208 C0.87552,71.05792 1.51296,74.304 1.69728,75.23072 C1.73327845,75.3860071 1.85268088,75.50837 2.00704,75.54816 L2.00704,75.54816 C2.16103698,75.5933848 2.32707793,75.5407376 2.42688,75.41504 L2.47552,75.3536 C2.62349445,75.1591355 2.72190128,74.9315697 2.76224,74.69056 L2.76224,74.69056 C2.8474906,74.1657691 2.86126917,73.6318494 2.8032,73.10336 L2.624,71.47264 C2.61153528,71.3522629 2.62641186,71.230625 2.66752,71.1168 L3.88864,67.7888" id="Path" stroke="#062F4F" stroke-width="0.5" fill="#B8B7B7" fill-rule="nonzero" stroke-linecap="round" stroke-linejoin="round"></path>
                <path d="M3.77856,66.59584 C3.66848,68.67968 4.88448,69.00736 4.88448,69.00736 L4.92032,70.42304 C4.92803119,70.6953512 4.97458085,70.9651668 5.05856,71.22432 L5.05856,71.22432 C5.09779654,71.3457263 5.16236739,71.4574164 5.248,71.552 L5.248,71.552 C5.40230696,71.7209827 5.61035361,71.8313379 5.8368,71.86432 L5.8368,71.86432 C5.96525394,71.8839603 6.09644668,71.8557174 6.20544,71.78496 L6.20544,71.78496 C6.29351418,71.7283874 6.34955168,71.6334086 6.35648,71.52896 C6.38464,71.01696 6.47168,69.4144 6.5024,68.82304 C6.53824,68.11648 6.5792,66.31168 6.3232,65.35936 C6.0672,64.40704 5.14048,62.57408 5.14048,62.57408 L4.0704,60.928 L3.2512,60.49024 L2.54464,60.34944 L2.15808,61.51168" id="Path" stroke="#062F4F" stroke-width="0.5" fill="#B8B7B7" fill-rule="nonzero" stroke-linecap="round" stroke-linejoin="round"></path>
                <path d="M5.17376,62.65088 L6.67648,50.10688 C6.82470802,48.7779749 6.48040838,47.4408535 5.7088,46.3488 C5.28972051,45.7500176 4.71407385,45.2779873 4.0448,44.98432 C3.4304,44.72832 2.69056,44.45184 2.05824,44.80512 C1.23955924,45.3100589 0.741443264,46.2035665 0.7424,47.16544 C0.72192,48.2218667 0.72192,49.2782933 0.7424,50.33472 C0.77568,52.44672 0.7424,54.57152 1.05728,56.66304 C1.36704,58.79552 1.56928,60.45184 1.93536,62.86592 L1.93536,62.90176" id="Path" stroke="#062F4F" stroke-width="0.5" fill="#B8B7B7" fill-rule="nonzero" stroke-linecap="round" stroke-linejoin="round"></path>
                <path d="M29.9904482,104.89856 C29.9904482,105.0119 29.980174,105.125008 29.95968,105.23648 L20.3008,105.23648 L20.28288,105.11104 C20.2397474,104.824082 20.2696839,104.53088 20.36992,104.25856 L20.98432,102.86848 C21.02784,102.7712 21.07392,102.67648 21.12768,102.58176 C21.5872032,101.773484 21.8502796,100.868501 21.89568,99.93984 C21.9136,99.2384 21.10464,91.60192 20.22144,83.55584 C19.74016,79.15776 19.2384,74.6368 18.83648,71.05536 C18.48576,67.90144 18.21184,65.47456 18.10432,64.4992 C18.0679219,64.1879907 17.9895568,63.883142 17.87136,63.59296 L17.79712,63.41632 C17.5991416,62.9466346 17.2432744,62.5608853 16.79104,62.32576 C16.6986983,62.2798525 16.5971958,62.2553519 16.49408,62.25408 C16.3770238,62.2528215 16.2618815,62.2838213 16.16128,62.34368 C15.87354,62.512698 15.6495091,62.7718181 15.52384,63.08096 L15.44704,63.27552 C15.2595499,63.7408812 15.1438823,64.232037 15.104,64.73216 L15.05024,65.35168 L13.47328,83.47648 L12.19328,98.28608 L12.288,100.12672 C12.3196828,100.724394 12.3034174,101.323645 12.23936,101.91872 L12.0704,103.53408 C12.0268892,103.8782 11.8226407,104.181248 11.52,104.35072 L11.45088,104.39168 C10.71872,104.67328 9.98656,104.95744 9.2544,105.23648 L6.84544,105.23648 C5.09696,105.23648 3.904,105.26976 2.15808,105.275149 L1.66144,105.275149 C1.54595715,105.278856 1.43331824,105.238562 1.34656,105.16224 L5.46048,99.51744 C5.1072,93.61664 4.90752,88.23552 4.81792,83.37664 C4.80256,82.5856 4.79232,81.80736 4.78208,81.04448 C4.53632,59.94752 6.4,49.38752 6.4,49.38752 L26.77248,48.07936 C26.77248,48.07936 28.82048,61.77536 28.79488,82.93376 C28.79488,84.1284267 28.7863467,85.3495467 28.76928,86.59712 C28.7232,90.38592 28.608,94.3872 28.39552,98.56512 C28.561802,99.6505449 28.7995454,100.723811 29.1072,101.77792 C29.3632,102.52544 29.71136,103.6544 29.91616,104.33792 C29.9667142,104.520468 29.9916991,104.709146 29.9904482,104.89856 Z" id="Path" stroke="#062F4F" stroke-width="0.5" fill="#ECECE2" fill-rule="nonzero" stroke-linecap="round" stroke-linejoin="round"></path>
                <path d="M35.47136,105.2288 C34.55488,105.59744 33.3056,105.2288 32.34816,105.2288 L6.84544,105.2288 C5.09696,105.2288 3.90144,105.26208 2.15552,105.2672 L1.66144,105.2672 C1.54591641,105.271438 1.43318326,105.231111 1.34656,105.15456 C1.32222941,105.134626 1.29993383,105.112331 1.28,105.088 C1.20080594,104.938252 1.20080594,104.759028 1.28,104.60928 C1.35027953,104.455647 1.44542373,104.31466 1.5616,104.192 C1.98217355,103.769641 2.36506745,103.311367 2.70592,102.8224 C3.16992205,102.071993 3.46274102,101.2285 3.56352,100.352 C3.72736,98.816 3.50976,97.25696 3.35872,95.72608 C2.87232,90.83392 3.10272,85.71904 4.77952,81.0624 C4.97408,80.52992 5.184,80.00512 5.41696,79.48544 C6.40256,77.26592 7.97696,75.38944 9.2288,73.3184 C10.48064,71.24736 11.136,68.92288 11.46112,66.52928 C11.49184,66.29376 11.79648,65.74592 12.02944,65.69984 L14.4896,65.14944 C14.6994571,65.1078853 14.9145293,65.1905288 15.04256,65.36192 L15.04256,65.36192 C15.24224,65.63584 15.45216,65.95072 15.6672,66.2912 C16.57856,67.71968 17.60768,69.5936 18.42944,70.59712 C18.56,70.7584 18.69824,70.91456 18.8416,71.0656 C20.41344,72.75008 22.5536,73.99168 23.82592,75.86816 C24.46848,76.8128 24.768,77.94176 25.08288,79.04256 C25.79968,81.55392 26.24256,84.02944 28.11136,85.95456 C28.32384,86.17472 28.54144,86.3872 28.75904,86.60224 C29.4181036,87.2159766 30.0420277,87.8663961 30.62784,88.5504 C32.9088,91.33568 32.93184,95.62112 33.82784,98.9568 C34.18368,100.29568 34.82368,101.43488 35.51232,102.61248 C35.97568,103.40096 36.70272,104.73216 35.47136,105.2288 Z" id="Path" stroke="#062F4F" stroke-width="0.5" fill="#B2B2B2" fill-rule="nonzero" stroke-linecap="round" stroke-linejoin="round"></path>
                <path d="M19.56864,84.39808 C19.5032177,84.2500276 19.3305449,84.1825594 19.18208,84.24704 L19.15392,84.25984 C18.21184,84.78464 16.08192,86.12352 15.33696,87.936 C14.56896,89.79968 12.62592,91.31008 11.54304,92.032 C11.4492214,92.0940553 11.3985176,92.2037927 11.4120692,92.315458 C11.4256208,92.4271233 11.5011015,92.5215471 11.60704,92.55936 C13.20448,93.09952 15.56736,92.28544 17.46176,90.39872 C19.4048,88.45312 20.224,85.99552 19.56864,84.39808 Z" id="Path" fill="#EDEDE3" fill-rule="nonzero"></path>
                <path d="M14.51264,87.9616 C15.28064,86.09536 17.22368,84.58496 18.30656,83.8656 C18.4003786,83.8035447 18.4510824,83.6938073 18.4375308,83.582142 C18.4239792,83.4704767 18.3484985,83.3760529 18.24256,83.33824 C16.64,82.79808 14.28224,83.6096 12.38784,85.504 C10.4448,87.4496 9.6384,89.9072 10.28096,91.50464 C10.3118467,91.5762261 10.3700929,91.6324774 10.4427115,91.6608516 C10.5153301,91.6892257 10.596283,91.6873635 10.66752,91.65568 L10.69568,91.64288 C11.63776,91.11296 13.76512,89.77152 14.51264,87.9616 Z" id="Path" fill="#EDEDE3" fill-rule="nonzero"></path>
                <path d="M13.25824,64.89344 C12.7443726,65.9457729 12.4640514,67.0967493 12.43648,68.26752" id="Path" stroke="#062F4F" stroke-width="0.5" stroke-linecap="round" stroke-linejoin="round"></path>
                <path d="M12.43648,65.07008 C12.43648,65.07008 14.15936,65.25184 14.53056,67.6096" id="Path" stroke="#062F4F" stroke-width="0.5" stroke-linecap="round" stroke-linejoin="round"></path>
                <rect id="Rectangle" stroke="#062F4F" stroke-width="0.5" fill="#B8B7B7" fill-rule="nonzero" stroke-linecap="round" stroke-linejoin="round" transform="translate(14.422991, 19.061756) rotate(2.960000) translate(-14.422991, -19.061756) " x="11.2306714" y="12.7846364" width="6.38464" height="12.55424"></rect>
                <path d="M1.55648,28.672 C1.024,29.87008 0.9728,31.01696 1.024,32.30464 C1.09312,33.86112 1.21856,35.42784 1.15968,36.98432 C1.08248533,39.0323601 0.814227654,41.0687187 0.3584,43.06688 C0.183342444,43.658603 0.111465978,44.2760478 0.14592,44.89216 C0.202551856,45.2167175 0.307844342,45.5308688 0.45824,45.824 C0.857421442,46.7692543 1.58475507,47.5384097 2.50624,47.98976 C3.50976,48.44544 4.49536,48.2816 5.54496,48.1408 L6.98112,47.9488 C6.98112,47.9488 7.21152,46.58944 7.21664,46.51776 C7.22176,46.44608 7.8592,40.09472 7.86688,39.95136 C7.87456,39.808 13.24288,30.592 13.24288,30.52032 C13.24288,30.44864 9.27232,29.03808 9.27232,29.03808 L8.35072,28.85376 L5.81632,27.456 L3.00032,27.06944 L3.04128,26.85184" id="Path" stroke="#062F4F" stroke-width="0.5" fill="#062F4F" fill-rule="nonzero" stroke-linecap="round" stroke-linejoin="round"></path>
                <path d="M4.97152,30.464 C4.91776,31.5392 4.44416,32.68864 4.51328,33.64608 C4.55487282,34.701883 4.6833065,35.7524705 4.89728,36.7872 C5.14048,37.79072 5.504,38.7712 5.60384,39.80544 C5.65333447,40.7014352 5.60526535,41.600156 5.46048,42.48576 C5.34784,43.38432 5.2864,44.27776 5.20448,45.19168 C5.00677665,47.0630917 4.99134417,48.9492839 5.1584,50.82368 C5.19949258,51.4534851 5.36571812,52.0687807 5.64736,52.6336 C6.06417807,53.2902921 6.65176495,53.8212441 7.3472,54.1696 C8.86208909,55.0907594 10.5391297,55.7137844 12.288,56.00512 C15.81056,56.71168 19.78112,56.65536 23.24736,55.68 C23.88992,55.49824 25.50528,55.77728 26.11968,55.51104 C26.6078095,55.3284952 27.0462466,55.0338655 27.39968,54.65088 C27.7525675,54.1663791 27.9498727,53.5860698 27.96544,52.98688 C28.06272,51.82208 28.10624,50.64704 28.16768,49.47712 C28.16768,49.47712 27.91168,43.87072 27.98848,41.664 C28.06528,39.45728 28.24448,32.61184 28.25984,32.2432" id="Path" stroke="#062F4F" stroke-width="0.5" fill="#062F4F" fill-rule="nonzero" stroke-linecap="round" stroke-linejoin="round"></path>
                <path d="M1.57184,28.55936 C2.07308008,27.5438522 2.82347338,26.6719163 3.75296,26.02496 C4.73088,25.29536 4.45696,25.42592 5.55776,24.88832 C6.30528,24.52224 7.09376,24.16128 7.75936,23.82848 C8.52736,23.43936 9.01632,23.22432 9.5744,22.7456 L9.68704,22.63296 C9.88416,22.42304 10.07104,22.20288 10.2784,22.00064 C10.4479804,21.7900546 10.6746074,21.6327488 10.9312,21.54752 C11.136,21.51936 11.12576,21.58336 11.1872,21.74208 C11.2812779,22.0012063 11.4326718,22.2357356 11.63008,22.42816 C11.9537158,22.7611308 12.3496404,23.0151532 12.7872,23.17056 C13.3647185,23.3384768 13.9743259,23.3639503 14.56384,23.2448 C15.27808,23.12704 16.17152,22.8864 16.68096,22.35136 C17.216606,21.7718254 17.5444061,21.0306729 17.6128,20.24448 C17.6128,20.24448 17.83296,20.16768 17.97888,20.58752 C18.1248,21.00736 19.38944,21.95712 19.77088,22.12352 C23.7952,23.91552 28.38272,25.91488 30.71744,29.89056 C31.94624,31.98976 31.80288,33.83296 31.7824,36.22656 C31.76704,38.03648 31.90016,39.81056 31.71584,41.61792 C31.45984,44.17792 32.384,48.20224 30.06208,50.36288 C29.08672,51.26912 27.19488,51.35104 25.96608,50.81344 C24.63232,50.23232 23.84384,48.8704 23.59552,47.48544 C23.30112,45.85728 23.58016,44.1728 23.80544,42.55232 C24.04608,40.82944 24.18688,39.0912 24.27648,37.35296 C24.3104833,36.1572689 24.2754383,34.9606119 24.17152,33.76896" id="Path" stroke="#062F4F" stroke-width="0.5" fill="#062F4F" fill-rule="nonzero" stroke-linecap="round" stroke-linejoin="round"></path>
                <path d="M16.5376,59.47136 L15.01952,59.92704 C14.7726116,60.0013208 14.5373553,60.1099007 14.32064,60.2496 L13.33504,61.29408 L13.07904,62.74304 L13.22752,63.7952 L14.48448,64.256 L15.67744,63.808 L17.28,62.016 L16.5376,59.47136 Z" id="Path" stroke="#062F4F" stroke-width="0.5" fill="#B8B7B7" fill-rule="nonzero" stroke-linecap="round" stroke-linejoin="round"></path>
                <path d="M14.1184,63.3344 C13.90336,62.53312 13.65248,61.73952 13.45792,60.93312 C13.3022145,60.1258089 13.0822067,59.3322401 12.8,58.56 C12.709224,58.3226061 12.5822841,58.1006772 12.42368,57.90208 C12.0704,57.48224 11.56096,57.35168 11.11296,57.71008 C10.90048,57.8816 10.68032,58.03264 10.45504,58.1888 C9.94304,58.53696 9.43104,58.8672 8.91904,59.2128 L7.84896,59.94496 C7.55066058,60.1709806 7.23952675,60.3795428 6.91712,60.5696 C6.62999655,60.6783618 6.40035469,60.9005958 6.28224,61.184 C6.23202042,61.4215116 6.27315371,61.6692254 6.39744,61.87776 C6.70464,62.48704 7.2832,62.90176 7.84128,63.29856 C8.89770667,64.04608 9.95328,64.7918933 11.008,65.536" id="Path" stroke="#062F4F" stroke-width="0.5" fill="#B2B2B2" fill-rule="nonzero" stroke-linecap="round" stroke-linejoin="round"></path>
                <path d="M12.71296,62.59968 C12.12416,61.12768 11.74016,59.56096 10.80064,58.24768 C10.7437284,58.1570593 10.6666252,58.0808322 10.57536,58.02496 C10.31936,57.88928 9.8944,58.09408 9.64096,58.19392 C8.78368509,58.5619775 8.01802021,59.114375 7.3984,59.81184 C7.24450456,59.9520177 7.16257564,60.1544857 7.17568,60.36224 C7.2042553,60.4808873 7.25842697,60.5918518 7.3344,60.68736 C8.23296,61.98272 9.5104,62.93504 10.64704,64.00256" id="Path" stroke="#062F4F" stroke-width="0.5" fill="#B2B2B2" fill-rule="nonzero" stroke-linecap="round" stroke-linejoin="round"></path>
                <path d="M13.83936,65.7152 L14.54848,65.94816 C14.8327836,66.0404387 15.136038,66.0580698 15.42912,65.99936 L15.42912,65.99936 C15.8349449,65.9176257 16.2012238,65.7011062 16.46848,65.38496 L17.0624,64.6784 C17.5632387,64.0853386 17.9503094,63.4049273 18.20416,62.67136 L18.59072,61.55264 L18.13504,59.70688 L17.26208,59.16928 L16.70656,59.05408 L16.33024,59.42784" id="Path" stroke="#062F4F" stroke-width="0.5" fill="#B8B7B7" fill-rule="nonzero" stroke-linecap="round" stroke-linejoin="round"></path>
                <path d="M15.91808,64.98048 L14.70464,65.72288 C14.4860042,65.8573151 14.2342595,65.9282291 13.9776,65.9276832 L12.4416,65.9276832 L14.40256,63.4624" id="Path" stroke="#062F4F" stroke-width="0.5" fill="#B8B7B7" fill-rule="nonzero" stroke-linecap="round" stroke-linejoin="round"></path>
                <path d="M14.83008,64.768 L12.34432,65.9712 C12.1404652,66.0697658 11.9151151,66.11554 11.68896,66.10432 L11.48672,66.10432 L11.02848,66.07872 L11.008,66.07872 L10.21184,66.03776 C9.92247202,66.036079 9.63348825,66.0164144 9.34656,65.97888 C9.2992164,65.9740386 9.25364502,65.9582639 9.21344,65.9328 C9.15352917,65.8836959 9.1226715,65.807516 9.13152,65.73056 C9.17328924,65.3911929 9.44000031,65.1234276 9.7792,65.08032 L11.36896,64.84736 C11.4810082,64.8305895 11.5882843,64.79047 11.68384,64.7296 L12.76672,64.04608 C12.9496885,63.9312133 13.1130441,63.7877369 13.25056,63.62112 L14.38208,62.25664" id="Path" stroke="#062F4F" stroke-width="0.5" fill="#B8B7B7" fill-rule="nonzero" stroke-linecap="round" stroke-linejoin="round"></path>
                <path d="M15.98976,59.648 L23.104,48.5632 C23.8655412,47.3989101 25.0263641,46.5531027 26.368,46.18496 C27.1021937,45.9789345 27.8789263,45.9789345 28.61312,46.18496 C29.2864,46.3744 30.05696,46.656 30.32832,47.36 C30.6500917,48.3095816 30.4562791,49.3581075 29.81632,50.12992 C29.1336533,50.9917867 28.4347733,51.84512 27.71968,52.68992 C26.2912,54.36672 24.90368,56.08704 23.26528,57.56672 C21.62688,59.0464 20.34176,60.2752 18.44224,61.97248 L18.41152,61.99296" id="Path" stroke="#062F4F" stroke-width="0.5" fill="#B8B7B7" fill-rule="nonzero" stroke-linecap="round" stroke-linejoin="round"></path>
                <path d="M20.78208,13.63456 C20.4928,14.49472 19.55328,14.9632 18.82112,14.71744 C18.08896,14.47168 17.73056,13.568 18.01984,12.71552 C18.30912,11.86304 19.50464,11.33824 20.23424,11.584 C20.96384,11.82976 21.07136,12.7744 20.78208,13.63456 Z" id="Path" stroke="#062F4F" stroke-width="0.5" fill="#B8B7B7" fill-rule="nonzero" stroke-linecap="round" stroke-linejoin="round"></path>
                <path d="M20.19584,12.288 C20.19584,12.288 19.17184,12.65408 18.9824,14.08" id="Path" stroke="#062F4F" stroke-width="0.5" fill="#B8B7B7" fill-rule="nonzero" stroke-linecap="round" stroke-linejoin="round"></path>
                <path d="M5.22496,12.84608 C5.42464,13.73184 6.3104,14.29504 7.06304,14.12608 C7.81568,13.95712 8.26624,13.10208 8.06912,12.21888 C7.872,11.33568 6.7328,10.69568 5.98016,10.86464 C5.22752,11.0336 5.02784,11.96032 5.22496,12.84608 Z" id="Path" stroke="#062F4F" stroke-width="0.5" fill="#B8B7B7" fill-rule="nonzero" stroke-linecap="round" stroke-linejoin="round"></path>
                <path d="M5.94944,11.55584 C5.94944,11.55584 6.92992,12.02688 6.97344,13.4656" id="Path" stroke="#062F4F" stroke-width="0.5" fill="#B8B7B7" fill-rule="nonzero" stroke-linecap="round" stroke-linejoin="round"></path>
                <path d="M7.28832,8.88576 C6.99910374,9.52873114 6.85991328,10.2290605 6.88128,10.93376 C6.89082882,11.6060861 6.82644213,12.2774247 6.68928,12.93568 C6.6304,13.43744 6.656,15.616 7.50848,16.896 C8.39424,18.22976 9.33632,18.90048 10.12224,19.55328 C10.95424,20.24448 12.36224,20.32128 12.80256,20.29056 C13.6586718,20.1985522 14.4847846,19.922599 15.22432,19.4816 C16.01792,18.9696 16.69632,18.32448 17.59744,16.57088 C18.49856,14.81728 18.62144,14.24128 18.74688,13.10208 C18.87232,11.96288 18.94144,9.35424 18.7776,8.7808 C18.61376,8.20736 18.0096,5.56032 13.312,5.31712 C9.75872,5.1328 9.65888,5.48352 8.71936,6.10304 C7.95392,6.60992 7.4752,8.23296 7.28832,8.88576 Z" id="Path" stroke="#062F4F" stroke-width="0.5" fill="#B8B7B7" fill-rule="nonzero" stroke-linecap="round" stroke-linejoin="round"></path>
                <path d="M10.24,16.74752 C11.0927705,17.4660837 12.3125826,17.5499587 13.25568,16.95488" id="Path" stroke="#062F4F" stroke-width="0.5" stroke-linecap="round" stroke-linejoin="round"></path>
                <path d="M12.22144,15.21152 C12.45952,15.0912 14.6304,15.42912 15.22944,16.2944 C15.2567586,16.3347107 15.2633444,16.3855874 15.2471903,16.4315254 C15.2310363,16.4774634 15.1940563,16.5130203 15.14752,16.52736 C13.20448,17.152 11.59424,15.7056 11.59424,15.7056 C11.59424,15.7056 11.39456,15.47264 11.59424,15.31648 C11.7873692,15.2173155 12.0065477,15.1806367 12.22144,15.21152 L12.22144,15.21152 Z" id="Path" fill="#062F4F" fill-rule="nonzero"></path>
                <path d="M11.23584,15.16032 C11.01056,15.0144 8.81664,15.1296 8.13056,15.92832 C8.10003392,15.9658344 8.08861307,16.015376 8.0996347,16.0624685 C8.11065633,16.1095609 8.14287641,16.1488887 8.18688,16.16896 C10.05568,16.99584 11.80672,15.7184 11.80672,15.7184 C11.80672,15.7184 12.032,15.50848 11.85024,15.33184 C11.6680527,15.2126213 11.4534344,15.1527071 11.23584,15.16032 L11.23584,15.16032 Z" id="Path" fill="#062F4F" fill-rule="nonzero"></path>
                <path d="M11.2768,11.904 C11.3028528,12.2207996 11.2916833,12.539561 11.24352,12.85376 C11.1233343,13.4077351 10.9278091,13.9426298 10.6624,14.44352 C10.5326216,14.6867209 10.5139633,14.9740579 10.6112,15.232 C10.7485531,15.479502 11.0091005,15.6332837 11.29216,15.63392 C11.6847728,15.6559751 12.0646242,15.4907397 12.31616,15.18848" id="Path" stroke="#062F4F" stroke-width="0.5" fill="#B8B7B7" fill-rule="nonzero" stroke-linecap="round" stroke-linejoin="round"></path>
                <circle id="Oval" fill="#062F4F" fill-rule="nonzero" cx="14.56128" cy="12.39296" r="1"></circle>
                <circle id="Oval" fill="#062F4F" fill-rule="nonzero" cx="10.32192" cy="12.1728" r="1"></circle>
                <path d="M13.568,10.84416 C14.3006417,10.4393042 15.1994913,10.4849411 15.88736,10.96192" id="Path" stroke="#062F4F" stroke-width="0.5" stroke-linecap="round" stroke-linejoin="round"></path>
                <path d="M8.89344,10.60096 C9.62250874,10.2026249 10.5138278,10.2491715 11.19744,10.72128" id="Path" stroke="#062F4F" stroke-width="0.5" stroke-linecap="round" stroke-linejoin="round"></path>
                <path d="M18.752,13.568 C18.752,13.5424 18.47808,13.45024 18.44736,13.43232 C18.3297175,13.3606812 18.2395594,13.2515898 18.19136,13.12256 C18.1409517,12.9463393 18.1261571,12.7618416 18.14784,12.57984 C18.1871767,12.2112857 18.1073223,11.8398281 17.92,11.52 C17.7250562,11.2956198 17.5146202,11.0851838 17.29024,10.89024 C17.0581953,10.6267911 16.9086453,10.3009857 16.86016,9.95328 C16.68352,8.82944 17.3312,7.72096 18.28608,7.15008 C18.28608,7.15008 18.304,7.13728 18.30912,7.13728 L19.87584,7.5648 L20.28544,8.14848 C20.62592,8.63232 21.0048,9.04704 20.87936,9.68448 C20.7744,10.22976 20.33408,10.69312 20.33408,11.24864 C20.33408,11.37408 20.4032,11.61216 20.20864,11.60704 C20.07552,11.60704 19.95264,11.52512 19.81696,11.50976 C19.5960717,11.4708577 19.3685868,11.4994048 19.16416,11.59168 C18.8288,11.776 18.77504,12.1984 18.75968,12.544 C18.74432,12.8896 18.76992,13.2224 18.752,13.568 Z" id="Path" fill="#062F4F" fill-rule="nonzero"></path>
                <path d="M6.81216,11.38944 C6.64596343,11.2742672 6.52475526,11.1051185 6.46912,10.91072 C6.39601551,10.7161049 6.38089872,10.5044698 6.4256,10.30144 C6.49761162,10.0689156 6.59640795,9.84554998 6.72,9.63584 C6.8276487,9.29917673 6.80760066,8.93466695 6.66368,8.61184 C6.59712,8.43008 7.2448,8.18176 7.2448,8.18176 L7.6416,8.38144 L7.06304,9.2032 L6.912,10.33472 L6.8736,10.81088 C6.87399287,11.005382 6.8533936,11.1993585 6.81216,11.38944 Z" id="Path" fill="#062F4F" fill-rule="nonzero"></path>
                <path d="M18.19136,7.99744 L20.75136,8.81408 L20.64384,7.2448 C20.6149036,6.81780279 20.4831611,6.40413125 20.25984,6.03904 L20.25984,6.03904 C20.0707133,5.72927747 19.8575796,5.43482768 19.6224,5.1584 L19.456,4.95872 C19.1672643,4.61395493 18.8207683,4.32203205 18.432,4.096 L17.77664,3.71968 L16.29696,3.01824 L15.38816,3.968 C15.38816,3.968 15.98976,5.9008 15.9872,5.94944 C15.98464,5.99808 16.91392,8.01536 16.91392,8.01536 L18.19136,7.99744 Z" id="Path" stroke="#062F4F" stroke-width="0.5" fill="#A0F48C" fill-rule="nonzero" stroke-linecap="round" stroke-linejoin="round"></path>
                <path d="M7.49056,7.08096 L8.25856,4.86144 C8.45422617,4.30452371 8.72280211,3.77598004 9.05728,3.2896 L9.05728,3.2896 C9.96148878,2.81002484 10.9362277,2.47733471 11.94496,2.304 L12.544,2.20416 C12.6050115,2.19439 12.6665692,2.18840523 12.72832,2.1862024 L12.72832,2.1862024 C13.5727057,2.18352997 14.4111618,2.32731481 15.2064,2.6112 L15.8464,2.83904 C16.138042,2.9441305 16.4177781,3.07970811 16.68096,3.24352 L17.36192,3.67104 L17.55136,3.81952 C17.8858793,4.08393652 18.1366274,4.43960746 18.27328,4.84352 L18.36544,5.09952 C18.4779214,5.42349947 18.5526553,5.75937271 18.58816,6.10048 L18.65728,6.78656 C18.6845867,7.04938667 18.6999467,7.31306667 18.70336,7.5776 L18.70336,8.19712 L16.77824,8.78592 L11.65824,8.19712 L8.52736,7.70816 L7.63648,7.2448 L7.49056,7.08096 Z" id="Path" stroke="#062F4F" stroke-width="0.5" fill="#ECECE2" fill-rule="nonzero" stroke-linecap="round" stroke-linejoin="round"></path>
                <path d="M5.48096,8.63232 C5.85984,8.28416 6.24896,7.95136 6.64576,7.60832 C6.912,7.3728 7.168,7.13216 7.44448,6.912 C8.1152,6.43584 8.96512,6.2976 9.7664,6.208 C10.6041762,6.12160153 11.4478597,6.10789703 12.288,6.16704 C12.8,6.20032 13.312,6.25152 13.80352,6.3104 C14.6211242,6.39599221 15.431957,6.53711816 16.2304,6.7328 C16.6318,6.83395063 17.0253597,6.96399646 17.408,7.12192 C17.7270024,7.26396434 18.0321029,7.43536911 18.31936,7.63392 C18.4700987,7.7186641 18.5969211,7.84020221 18.688,7.9872 C18.7253254,8.05040453 18.7397869,8.12451989 18.72896,8.19712 C18.6990257,8.2763154 18.6442362,8.34367948 18.5728,8.38912 C17.85856,8.96 17.152,9.5104 16.47104,10.11456 C16.29184,10.26304 16.1536,10.19136 15.95904,10.11456 C15.76448,10.03776 15.56992,9.9584 15.37536,9.88672 C14.98112,9.73994667 14.5826133,9.60853333 14.17984,9.49248 C13.3739026,9.26340605 12.5526048,9.09230235 11.72224,8.98048 C9.99193355,8.73536988 8.23379258,8.76474422 6.51264,9.06752 L5.71648,9.21344 C5.60122532,9.24625827 5.47745537,9.22857685 5.376,9.1648 C5.29615392,9.09594859 5.26668516,8.9851867 5.30176,8.88576 C5.33645102,8.78609859 5.39856517,8.69825144 5.48096,8.63232 Z" id="Path" stroke="#062F4F" stroke-width="0.5" fill="#A0F48C" fill-rule="nonzero" stroke-linecap="round" stroke-linejoin="round"></path>
                <path d="M86.67392,105.78176 L87.01696,107.31776 C87.06304,107.52256 88.77568,107.11296 88.9472,107.06176 C89.7041966,106.84599 90.440191,106.562388 91.14624,106.2144 C94.8534704,104.459363 97.9030512,101.565849 99.85024,97.95584 C100.445977,96.779405 100.970027,95.5680208 101.41952,94.32832 C101.98528,92.81792 102.58176,91.29216 102.79424,89.68448 C102.8864,88.9984 102.90432,88.30464 102.96832,87.61344 C102.987678,87.2789809 103.054036,86.9489138 103.16544,86.63296 C103.42144,86.016 103.42144,85.49888 102.58944,85.66272 C99.82976,86.208 97.91744,87.82592 96.44544,90.16576 C94.35392,93.49376 93.57568,97.33376 91.85536,100.84096 C91.59936,101.376 91.31008,101.90336 91.00288,102.41536 C90.29376,103.60832 89.54112,104.33792 88.2048,104.73728 L87.04,104.96 L86.67392,105.78176 Z" id="Path" stroke="#062F4F" stroke-width="0.5" fill="#B2B2B2" fill-rule="nonzero" stroke-linecap="round" stroke-linejoin="round"></path>
                <polygon id="Path" fill="#B2B2B2" fill-rule="nonzero" points="77.68064 93.36064 86.0544 99.51488 88.15104 95.3344 82.24512 78.08512 78.57664 65.97632 68.46208 67.2128 68.1472 73.5616 74.78272 92.75136"></polygon>
                <path d="M67.648,95.38304 L68.4416,100.13952 C68.5299685,100.826381 68.7306155,101.494052 69.03552,102.11584 C69.1994438,102.424056 69.4180383,102.699901 69.68064,102.92992 C70.0107708,103.174988 70.3855662,103.353255 70.784,103.45472 C70.6242329,103.434146 70.4624871,103.434146 70.30272,103.45472 C70.12352,103.45472 69.94176,103.45472 69.76256,103.45472 C69.4069922,103.464369 69.0526811,103.50117 68.70272,103.5648 C68.3536634,103.642767 68.0112755,103.748051 67.67872,103.87968 C67.3653561,103.966356 67.0568607,104.069757 66.75456,104.18944 L65.63328,104.73728 L64.46336,106.14528 L66.49344,107.69664 L77.68576,107.69664 L72.53248,92.99712 L70.64576,92.20864 L68.83328,90.41664 L68.13952,92.27776 L67.648,95.38304 Z" id="Path" stroke="#062F4F" stroke-width="0.5" fill="#B2B2B2" fill-rule="nonzero" stroke-linecap="round" stroke-linejoin="round"></path>
                <path d="M65.45408,82.28608 C65.45408,85.57056 65.50016,88.85504 65.42848,92.13696 C65.41568,92.80768 65.37984,93.48096 65.35424,94.15168 C65.32864,94.8224 65.36704,95.43168 65.35424,96.0896 C65.35424,97.56416 65.0496,99.01312 64.75264,100.4416 C64.44288,101.94176 64.14336,103.44448 63.83872,104.9472 C63.7790128,105.333871 63.673303,105.71202 63.52384,106.0736 C63.38048,106.37824 63.15008,106.63168 62.98112,106.92352 C62.7861464,107.262953 62.6380278,107.627222 62.5408,108.0064 C62.4907985,108.172159 62.4725588,108.345871 62.48704,108.5184 C62.60992,109.40416 64.06656,109.64992 64.7552,109.62688 C65.2931954,109.593187 65.8256499,109.498719 66.3424,109.34528 C66.7572719,109.255128 67.1380789,109.04919 67.44064,108.75136 C67.72736,108.4416 67.7888,108.04992 67.87584,107.65312 C67.9063487,107.429727 67.9568992,107.209532 68.02688,106.9952 C68.0832,106.720427 68.13696,106.446507 68.18816,106.17344 C68.2939733,105.623893 68.39552,105.073493 68.4928,104.52224 C68.9152,102.10048 69.27616,99.65824 69.6704,97.23904 L70.08256,92.45952" id="Path" stroke="#062F4F" stroke-width="0.5" fill="#B2B2B2" fill-rule="nonzero" stroke-linecap="round" stroke-linejoin="round"></path>
                <path d="M68.1472,71.24992 C67.2896,72.80896 66.32448,74.27328 65.72032,75.95776 C65.11616,77.64224 64.75776,79.43936 64.99072,81.22368 C65.24672,83.15648 66.1504,84.91008 66.92864,86.67136 C67.41504,87.76704 67.87584,88.87296 68.34688,89.97632 C68.77696,90.97984 69.27872,91.94752 69.75232,92.93824 C71.26272,96.1024 71.5776,99.62496 73.1776,102.73024 C73.72544,103.79776 75.11552,105.29024 75.8784,106.31424 C77.4144,108.36224 78.7072,108.416 81.05472,108.75136 L85.89056,108.75136 L92.27008,106.8544" id="Path" stroke="#062F4F" stroke-width="0.5" fill="#B2B2B2" fill-rule="nonzero" stroke-linecap="round" stroke-linejoin="round"></path>
                <path d="M72.07168,84.31616 C72.73728,86.02112 73.43872,87.71328 73.98912,89.46176 C74.53952,91.21024 74.8288,93.0176 75.16672,94.80192 C75.87328,98.51136 76.5312,102.2592 76.58752,106.04544 C76.58752,106.7008 76.58752,107.35872 76.58752,108.01408 C76.58752,108.17536 76.30336,108.47232 76.21632,108.61568 C75.8784,109.17632 75.5072,109.86752 75.73504,110.53824 C75.9599438,111.091213 76.384991,111.539113 76.92544,111.79264 C77.8752,112.22528 79.3984,112.02048 80.32512,111.57248 C80.87808,111.30368 81.22624,111.01696 81.25696,110.58176 C81.3242991,110.004101 81.346553,109.422075 81.32352,108.84096 C81.2544,106.048 81.34656,102.95296 81.01888,100.1856 C80.79616,98.29376 80.55296,96.40448 80.32256,94.51264 C80.1104443,92.6372193 80.0249173,90.7496386 80.06656,88.86272 C80.092616,86.1498592 80.6618976,83.4697093 81.7408,80.98048" id="Path" stroke="#062F4F" stroke-width="0.5" fill="#B2B2B2" fill-rule="nonzero" stroke-linecap="round" stroke-linejoin="round"></path>
                <path d="M87.95136,105.71264 C87.11168,105.9328 86.14656,105.98656 85.48608,106.60608 C85.1610665,106.911776 84.9000148,107.278989 84.71808,107.6864 C84.58752,107.9808 84.288,108.68992 84.46208,109.0048 C84.4912232,109.054968 84.5304482,109.098552 84.57728,109.1328 C86.52032,110.82752 89.69728,110.528 91.97056,109.81632 C92.3904,109.68576 92.87168,109.4912 92.99456,109.03296 C93.15072,108.4672 93.06112,107.8144 93.04576,107.24096 C93.00992,105.96096 93.11488,104.69888 92.96384,103.41888 C92.7467336,101.833755 92.3921163,100.270527 91.904,98.74688 C91.43296,97.18016 90.90816,95.63136 90.3296,94.10048 C89.16224,91.02848 87.8592,87.95648 86.42816,84.99456 C85.02528,82.08128 83.35616,79.29856 82.05824,76.3392 C80.751734,73.3257591 79.6785006,70.2164633 78.848,67.03872 C78.6432,66.27072 78.47168,65.48992 78.2848,64.71424 L77.91104,63.52384" id="Path" stroke="#062F4F" stroke-width="0.5" fill="#B2B2B2" fill-rule="nonzero" stroke-linecap="round" stroke-linejoin="round"></path>
                <path d="M82.24512,94.76864 C82.30912,95.90784 82.41408,97.07264 82.58304,98.19392 C82.7783814,99.6275888 83.2109573,101.018753 83.86304,102.3104 C85.0432,104.55808 87.38816,106.4064 90.03776,105.99936 C90.32704,105.95584 90.60608,105.88416 90.89024,105.82272" id="Path" stroke="#062F4F" stroke-width="0.5" fill="#B2B2B2" fill-rule="nonzero" stroke-linecap="round" stroke-linejoin="round"></path>
                <path d="M62.56896,108.77952 C62.6782311,108.359877 62.8658449,107.964672 63.12192,107.61472" id="Path" stroke="#062F4F" stroke-width="0.5" fill="#A0F48C" fill-rule="nonzero" stroke-linecap="round" stroke-linejoin="round"></path>
                <path d="M63.8464,107.81952 C63.8464,107.81952 63.13472,108.58752 63.0144,109.24032" id="Path" stroke="#062F4F" stroke-width="0.5" stroke-linecap="round" stroke-linejoin="round"></path>
                <path d="M85.15328,109.568 C85.1807295,109.289312 85.2533592,109.016951 85.36832,108.7616 C85.4892523,108.481509 85.6458545,108.218211 85.83424,107.97824" id="Path" stroke="#062F4F" stroke-width="0.5" stroke-linecap="round" stroke-linejoin="round"></path>
                <path d="M85.88288,109.92384 C85.9440596,109.451834 86.1140768,109.0005 86.37952,108.60544 C86.48448,108.44416 86.56128,108.34944 86.56128,108.34944" id="Path" stroke="#062F4F" stroke-width="0.5" stroke-linecap="round" stroke-linejoin="round"></path>
                <path d="M87.43424,108.7488 C87.1006671,109.174136 86.8725752,109.672429 86.76864,110.20288" id="Path" stroke="#062F4F" stroke-width="0.5" stroke-linecap="round" stroke-linejoin="round"></path>
                <path d="M75.8016,110.7328 C75.823114,110.640975 75.8496064,110.550388 75.88096,110.46144 C75.9758562,110.163454 76.1065154,109.878067 76.27008,109.61152" id="Path" stroke="#062F4F" stroke-width="0.5" stroke-linecap="round" stroke-linejoin="round"></path>
                <path d="M76.42368,111.48288 C76.4784811,111.057823 76.6066789,110.645512 76.80256,110.26432 C76.8490343,110.169613 76.9003006,110.077333 76.95616,109.98784" id="Path" stroke="#062F4F" stroke-width="0.5" stroke-linecap="round" stroke-linejoin="round"></path>
                <path d="M77.23776,111.9104 C77.3051652,111.365872 77.4884812,110.842112 77.77536,110.3744" id="Path" stroke="#062F4F" stroke-width="0.5" stroke-linecap="round" stroke-linejoin="round"></path>
                <path d="M71.29856,67.99616 C71.39584,67.8528 71.04256,68.04224 71.07072,67.87328 L71.13216,67.31264 L68.43136,66.8416 L64.768,67.13856 L63.91296,68.07552 L63.81824,68.9664 L63.91808,69.39392 C63.96672,69.6064 64.36096,69.83936 64.50688,70.00576 C64.8170236,70.3594677 65.1947792,70.6475717 65.61792,70.85312 C66.3511857,71.2159461 67.1894479,71.3066671 67.98336,71.10912 C68.6188347,70.9569957 69.2086926,70.6550446 69.70368,70.22848" id="Path" stroke="#062F4F" stroke-width="0.5" fill="#B2B2B2" fill-rule="nonzero" stroke-linecap="round" stroke-linejoin="round"></path>
                <path d="M62.336,66.65728 C62.1913785,67.231586 62.1454975,67.8263075 62.20032,68.416 C62.29248,69.1584 62.80704,70.02112 63.55456,70.24384 C64.41984,70.49984 64.88064,69.696 65.00864,68.96384 C65.0737537,68.4539217 65.1816543,67.9503857 65.3312,67.45856 L65.6,66.17856 C65.6,66.17856 64.47872,65.35936 64.42496,65.35168 L62.70976,65.16992 L62.49984,65.7664 L62.43328,66.24512 L62.336,66.65728 Z" id="Path" stroke="#062F4F" stroke-width="0.5" fill="#062F4F" fill-rule="nonzero" stroke-linecap="round" stroke-linejoin="round"></path>
                <path d="M63.76192,65.81504 C63.76192,65.81504 63.24992,66.67264 63.19872,69.14304" id="Path" stroke="#062F4F" stroke-width="0.5" fill="#062F4F" fill-rule="nonzero" stroke-linecap="round" stroke-linejoin="round"></path>
                <polygon id="Path" fill="#B2B2B2" fill-rule="nonzero" points="61.5424 64.2176 61.79584 66.61632 63.15264 66.56 67.9936 68.51328 78.38208 67.90656 78.28224 66.49344 75.86304 60.78208 68.54656 60.44416 64.71168 61.69856 63.23456 61.93152 61.59616 62.55872 61.43488 64.00768"></polygon>
                <path d="M64.4096,61.12256 C64.4096,61.12256 64.62464,59.5328 64.7424,59.1616 C64.86016,58.7904 65.11104,58.1376 66.2528,58.09152 C67.39456,58.04544 66.88512,60.95616 66.88512,60.95616 C66.88512,60.95616 66.32704,61.312 66.2784,61.32224 C66.22976,61.33248 64.4096,61.12256 64.4096,61.12256 Z" id="Path" stroke="#062F4F" stroke-width="0.5" fill="#B2B2B2" fill-rule="nonzero" stroke-linecap="round" stroke-linejoin="round"></path>
                <path d="M62.72,66.4832 C63.29344,67.88096 65.16992,68.59264 66.53696,68.91264 C67.904,69.23264 69.35296,69.184 70.5664,68.51584 C71.872,67.79392 72.71168,66.42944 73.18784,65.01888" id="Path" stroke="#062F4F" stroke-width="0.5" fill="#B2B2B2" fill-rule="nonzero" stroke-linecap="round" stroke-linejoin="round"></path>
                <path d="M65.71776,60.8256 C65.7429846,60.0294139 65.7164755,59.2324301 65.6384,58.43968 C65.52064,57.80736 65.87136,56.45824 66.53952,56.0128 C67.109112,55.5810245 67.8121004,55.3626995 68.52608,55.39584 C69.2580682,55.4180764 69.9897744,55.3431841 70.70208,55.17312 C71.8208,54.96064 72.93952,54.68672 74.20672,55.33696 C75.47392,55.9872 76.1472,56.68096 76.54912,57.55136 C76.95104,58.42176 77.58592,57.90976 78.42048,59.0336 C78.89408,59.67104 78.99904,60.6592 79.1296,61.41952 C79.30112,62.4128 79.41376,63.41888 79.50592,64.4224 C79.54688,64.87808 79.53664,65.32352 79.53664,65.77664 C79.576498,66.2248141 79.49608,66.675508 79.30368,67.08224 C78.87872,67.79648 77.89056,68.03456 77.12,67.94752 C76.19584,67.84512 75.1744,67.36896 74.7776,66.48576 C74.50624,65.88416 74.53952,65.23392 74.46528,64.59648 C74.37824,63.82848 74.31936,63.08096 74.24768,62.32576 L74.15296,61.34016" id="Path" stroke="#062F4F" stroke-width="0.5" fill="#B2B2B2" fill-rule="nonzero" stroke-linecap="round" stroke-linejoin="round"></path>
                <path d="M62.4896,64.43264 C62.5025599,65.0956382 62.574524,65.7561659 62.70464,66.4064 C62.7161726,66.4612672 62.7161726,66.5179328 62.70464,66.5728 C62.6473049,66.8318237 62.4825677,67.0542654 62.25152,67.18464 L62.20544,67.21024 C62.0441554,67.2987802 61.8471374,67.2908995 61.69344,67.18976 C61.43744,67.01824 61.4016,66.75456 61.34784,66.47296 C61.29408,66.19136 61.23008,65.85088 61.184,65.53856 C61.082882,64.9054364 61.0366301,64.2647627 61.04576,63.62368 C61.0280157,63.1322154 61.0858635,62.6409409 61.21728,62.16704 C61.355327,61.7987225 61.6143833,61.488216 61.952,61.2864 C62.56896,60.92032 63.30368,60.92544 64,60.84608 C65.7024,60.64896 67.37152,60.29056 69.05088,59.97056" id="Path" stroke="#062F4F" stroke-width="0.5" fill="#B2B2B2" fill-rule="nonzero" stroke-linecap="round" stroke-linejoin="round"></path>
                <path d="M62.03392,61.99296 L62.06208,61.99296 C62.4423817,61.8775624 62.8456467,61.8599525 63.23456,61.94176 C63.4122428,61.9642252 63.5851337,62.015228 63.74656,62.0928 C64.44544,62.45888 63.91296,63.26272 63.61856,63.7056 C63.5947407,63.7468741 63.562461,63.7826435 63.52384,63.81056 C63.4578427,63.8375981 63.3877172,63.8531815 63.31648,63.85664 C63.15264,63.88992 63.07584,64.03328 62.97088,64.14592 C62.77632,64.35072 62.54336,64.53504 62.28224,64.36864 C62.1336226,64.2866623 62.0172017,64.1567041 61.952,64 C61.90592,63.86432 61.73184,63.81824 61.66528,63.69024 C61.6293367,63.6092382 61.6076838,63.5226267 61.60128,63.43424 C61.53984,62.95808 61.4784,62.208 62.03392,61.99296 Z" id="Path" stroke="#062F4F" stroke-width="0.5" fill="#062F4F" fill-rule="nonzero" stroke-linecap="round" stroke-linejoin="round"></path>
                <circle id="Oval" fill="#062F4F" fill-rule="nonzero" cx="71.38816" cy="59.96544" r="1"></circle>
                <circle id="Oval" fill="#062F4F" fill-rule="nonzero" cx="67.49952" cy="59.79648" r="1"></circle>
                <path d="M69.7088,57.19552 C69.7088,57.19552 70.87872,55.58016 72.45824,57.19552" id="Path" stroke="#062F4F" stroke-width="0.5" stroke-linecap="round" stroke-linejoin="round"></path>
                <path d="M65.49504,58.03264 C65.49504,58.03264 66.32704,56.22016 68.19072,57.4976" id="Path" stroke="#062F4F" stroke-width="0.5" stroke-linecap="round" stroke-linejoin="round"></path>
            </g>
        </g>
    </g>
</svg>